<svg width="121" height="120" viewBox="0 0 121 120" fill="none" xmlns="http://www.w3.org/2000/svg">
<g clip-path="url(#clip0_3_19)">
<path d="M92.625 0H28.875C13.342 0 0.75 12.592 0.75 28.125V91.875C0.75 107.408 13.342 120 28.875 120H92.625C108.158 120 120.75 107.408 120.75 91.875V28.125C120.75 12.592 108.158 0 92.625 0Z" fill="#394AAB"/>
<path d="M63.563 15.4688C80.0363 15.4688 94.4194 24.4153 102.123 37.7138L102.048 37.5858L82.6655 48.7458C78.847 42.2803 71.8462 37.9167 63.8156 37.8272L63.563 37.8258C51.3164 37.8258 41.3883 47.7534 41.3883 59.9995C41.3843 63.8594 42.3927 67.6528 44.3128 71.0011C48.135 77.6737 55.32 82.1747 63.563 82.1747C71.8561 82.1747 79.0823 77.6166 82.8853 70.8727L82.793 71.0344L102.146 82.2459C94.5267 95.4319 80.3409 104.351 64.0589 104.528L63.563 104.531C47.0372 104.531 32.6133 95.5294 24.9291 82.1606C21.1777 75.6342 19.0312 68.0681 19.0312 59.9995C19.0312 35.4061 38.9681 15.4688 63.563 15.4688Z" fill="white"/>
</g>
<defs>
<clipPath id="clip0_3_19">
<rect width="120" height="120" fill="white" transform="translate(0.75)"/>
</clipPath>
</defs>
</svg>
