<svg width="120" height="120" viewBox="0 0 120 120" fill="none" xmlns="http://www.w3.org/2000/svg">
<g clip-path="url(#clip0_3_23)">
<path d="M91.875 0H28.125C12.592 0 0 12.592 0 28.125V91.875C0 107.408 12.592 120 28.125 120H91.875C107.408 120 120 107.408 120 91.875V28.125C120 12.592 107.408 0 91.875 0Z" fill="#00599C"/>
<path d="M51.9183 98.6798C30.5273 98.6798 13.125 81.2775 13.125 59.887C13.125 38.4961 30.5273 21.0938 51.9183 21.0938C65.7206 21.0938 78.5939 28.5216 85.5127 40.478L68.7239 50.1933C65.2612 44.2083 58.8211 40.4902 51.9183 40.4902C41.2228 40.4902 32.5214 49.1916 32.5214 59.887C32.5214 70.582 41.2228 79.2834 51.9183 79.2834C58.8216 79.2834 65.2617 75.5653 68.7248 69.5794L85.5136 79.2942C78.5948 91.252 65.7216 98.6798 51.9183 98.6798Z" fill="white"/>
<path d="M90.7111 57.7317H86.4005V53.4211H82.0908V57.7317H77.7802V62.0419H82.0908V66.3525H86.4005V62.0419H90.7111V57.7317ZM106.875 57.7317H102.564V53.4211H98.2547V57.7317H93.9441V62.0419H98.2547V66.3525H102.564V62.0419H106.875V57.7317Z" fill="white"/>
</g>
<defs>
<clipPath id="clip0_3_23">
<rect width="120" height="120" fill="white"/>
</clipPath>
</defs>
</svg>
