<svg width="121" height="120" viewBox="0 0 121 120" fill="none" xmlns="http://www.w3.org/2000/svg">
<g clip-path="url(#clip0_3_28)">
<path d="M92.375 0H28.625C13.092 0 0.5 12.592 0.5 28.125V91.875C0.5 107.408 13.092 120 28.625 120H92.375C107.908 120 120.5 107.408 120.5 91.875V28.125C120.5 12.592 107.908 0 92.375 0Z" fill="#0277BD"/>
<path d="M25.6967 48.1177L27.0383 63.0905H60.545V48.1177H25.6967ZM60.5445 17.8125H23L24.3612 32.7853H60.5445V17.8125ZM60.5445 102.582V87.0038L60.4789 87.0211L43.8036 82.5187L42.7377 70.5769H27.7072L29.8048 94.0866L60.4756 102.601L60.5445 102.582Z" fill="#EBEBEB"/>
<path d="M78.9303 63.0905L77.1922 82.5089L60.493 87.0164V102.593L91.1881 94.0866L91.4131 91.5567L94.9316 52.1386L95.2967 48.1177L98 17.8125H60.493V32.7853H81.5909L80.2287 48.1177H60.493V63.0905H78.9303Z" fill="white"/>
</g>
<defs>
<clipPath id="clip0_3_28">
<rect width="120" height="120" fill="white" transform="translate(0.5)"/>
</clipPath>
</defs>
</svg>
