<svg width="128" height="128" viewBox="0 0 128 128" fill="none" xmlns="http://www.w3.org/2000/svg">
<g clip-path="url(#clip0_3_45)">
<path d="M100.875 8H37.125C21.592 8 9 20.592 9 36.125V99.875C9 115.408 21.592 128 37.125 128H100.875C116.408 128 129 115.408 129 99.875V36.125C129 20.592 116.408 8 100.875 8Z" fill="#242938"/>
<path d="M49.206 44.5546L42.9908 38.3395V83.0435L43.0657 85.1401C43.0657 86.1136 43.2155 87.2368 43.5899 88.36L92.7118 105.658L104.917 100.266L49.206 44.5546Z" fill="#00C4B3"/>
<path d="M104.917 99.9326L92.5625 105.39L42.9908 87.8807C43.9762 91.519 46.0227 95.5363 48.2967 97.886L64.4416 113.955L100.521 114.031L104.917 99.9326Z" fill="#22D3C5"/>
<path d="M24.7619 65.7743C23.2693 67.3379 24.0511 70.6784 26.3966 73.1661L36.8446 83.6851L43.3834 86.0306C43.1702 84.9644 42.8859 83.8983 42.8859 82.9744L42.8148 80.9843L42.6727 38.4816M101.451 97.1893L106.569 85.533L90.2216 38.9081C89.1555 38.6949 88.0894 38.4816 87.1654 38.4106L85.1043 38.3395L42.7438 38.4106" fill="#0075C9"/>
<path d="M100.99 98.6122L114 94.3491V58.5529L99.0053 43.4847C96.8002 41.2796 92.9045 39.2215 89.3029 38.3395L106.282 86.5577" fill="#00A8E1"/>
<path d="M85.4674 33.3206L75.3907 23.3121C73.0759 20.9972 69.9439 20.3163 68.3099 21.7461L42.1652 39.0397H82.6759L84.6503 39.1078C85.5355 39.1078 86.5567 39.244 87.578 39.5844L85.4674 33.3206Z" fill="#00C4B3"/>
</g>
<defs>
<clipPath id="clip0_3_45">
<rect width="128" height="128" fill="white"/>
</clipPath>
</defs>
</svg>
