<svg width="121" height="120" viewBox="0 0 121 120" fill="none" xmlns="http://www.w3.org/2000/svg">
<g clip-path="url(#clip0_3_15)">
<path d="M92.5 0H28.75C13.217 0 0.625 12.592 0.625 28.125V91.875C0.625 107.408 13.217 120 28.75 120H92.5C108.033 120 120.625 107.408 120.625 91.875V28.125C120.625 12.592 108.033 0 92.5 0Z" fill="#2396ED"/>
<path d="M66.8064 57.2452H76.5175V48.4589H66.8064V57.2452ZM55.2461 57.2452H64.9567V48.4589H55.2461V57.2452ZM43.9164 57.2452H53.6275V48.4589H43.9164V57.2452ZM32.5867 57.2452H42.0672V48.4589H32.5872L32.5867 57.2452ZM21.0264 57.2452H30.7375V48.4589H21.0264V57.2452ZM32.5872 46.6092H42.0667V37.8234H32.5872V46.6092ZM43.9169 46.6092H53.6275V37.8234H43.9164L43.9169 46.6092ZM55.2461 46.6092H64.9567V37.8234H55.2461V46.6092ZM55.2461 35.9733H64.9567V27.1875H55.2461V35.9733ZM107.5 53.3152C107.5 53.3152 103.338 49.3842 94.7833 50.7717C93.8584 44.0663 86.6908 40.1358 86.6908 40.1358C86.6908 40.1358 79.9858 48.2283 84.8411 57.2456C83.4541 57.9394 81.1417 58.8642 77.6734 58.8642H14.0903C12.9339 63.2573 12.9339 92.3897 44.8413 92.3897C67.7313 92.3897 84.8411 81.7542 92.9336 62.332C104.957 63.2569 107.5 53.3152 107.5 53.3152Z" fill="white"/>
</g>
<defs>
<clipPath id="clip0_3_15">
<rect width="120" height="120" fill="white" transform="translate(0.625)"/>
</clipPath>
</defs>
</svg>
