<svg width="121" height="120" viewBox="0 0 121 120" fill="none" xmlns="http://www.w3.org/2000/svg">
<g clip-path="url(#clip0_5_139)">
<path d="M92.625 0H28.875C13.342 0 0.75 12.592 0.75 28.125V91.875C0.75 107.408 13.342 120 28.875 120H92.625C108.158 120 120.75 107.408 120.75 91.875V28.125C120.75 12.592 108.158 0 92.625 0Z" fill="#242938"/>
<path d="M107.625 85.7517C106.26 86.2685 104.754 86.2675 103.39 85.7489C102.026 85.2302 100.899 84.2298 100.223 82.9369C95.9747 76.5774 91.2834 70.5047 86.7745 64.3017L84.8194 61.6955C79.4503 68.8889 74.0812 75.7955 69.1814 82.9631C68.5432 84.1989 67.4775 85.1605 66.1829 85.6688C64.8883 86.1771 63.453 86.1974 62.1445 85.7259L82.2914 58.6983L63.5517 34.2764C64.9007 33.7893 66.3764 33.7826 67.7297 34.2574C69.0831 34.7322 70.2311 35.6595 70.98 36.8827C75.3323 43.2427 80.1544 49.3153 84.9497 55.7531C89.7717 49.3674 94.5412 43.2684 98.9981 36.9609C99.6399 35.7453 100.706 34.8079 101.994 34.3274C103.282 33.8468 104.702 33.8565 105.983 34.3547L98.7112 43.9983C95.4534 48.2986 92.2477 52.6252 88.8595 56.8214C88.5863 57.0658 88.3678 57.3651 88.2182 57.6997C88.0685 58.0343 87.9912 58.3967 87.9912 58.7632C87.9912 59.1298 88.0685 59.4922 88.2182 59.8268C88.3678 60.1614 88.5863 60.4606 88.8595 60.705C95.0887 68.9672 101.265 77.2552 107.625 85.7517ZM13.875 58.3594C14.4225 55.7531 14.7609 52.912 15.517 50.2538C20.0259 34.2249 38.4005 27.5522 51.0413 37.4827C58.4433 43.2952 60.2939 51.5311 59.9292 60.8095H18.2278C17.55 77.3859 29.513 87.3942 44.812 82.2858C47.2938 81.398 49.5154 79.9061 51.2763 77.9449C53.0373 75.9837 54.2821 73.6149 54.8986 71.0522C55.7067 68.4459 57.0098 68.003 59.4858 68.7586C59.0781 71.9316 57.9563 74.9709 56.2048 77.6479C54.4533 80.3249 52.1176 82.5699 49.3734 84.2142C44.8395 86.6938 39.6376 87.6762 34.5117 87.0208C29.3857 86.3655 24.5983 84.106 20.8341 80.5655C17.11 76.3783 14.8582 71.0875 14.4225 65.5008C14.4225 64.6149 14.0836 63.7284 13.9012 62.8945C13.884 61.3829 13.8753 59.8711 13.875 58.3594ZM18.2798 57.2386H55.9936C55.7587 45.2236 48.1744 36.7008 38.062 36.623C26.8027 36.4664 18.7491 44.8064 18.2536 57.1866L18.2798 57.2386Z" fill="white"/>
</g>
<defs>
<clipPath id="clip0_5_139">
<rect width="120" height="120" fill="white" transform="translate(0.75)"/>
</clipPath>
</defs>
</svg>
