<svg width="121" height="120" viewBox="0 0 121 120" fill="none" xmlns="http://www.w3.org/2000/svg">
<path d="M92.75 0H29C13.467 0 0.875 12.592 0.875 28.125V91.875C0.875 107.408 13.467 120 29 120H92.75C108.283 120 120.875 107.408 120.875 91.875V28.125C120.875 12.592 108.283 0 92.75 0Z" fill="#242938"/>
<path d="M68.8128 17.8416L94.9573 17.8125L51.0941 61.6528L39.6627 73.0205L26.6562 59.9981L68.8128 17.8416ZM68.5695 56.9855C68.9089 56.5373 69.5333 56.7586 70.0072 56.7009L94.9348 56.707L72.2159 79.4039L59.142 66.4102L68.5695 56.9855Z" fill="#44D1FD"/>
<path d="M46.1098 79.4259L59.142 66.4102L72.2159 79.4039L72.2703 79.4616L59.1453 92.4647L46.1098 79.4259Z" fill="#1FBCFD"/>
<path d="M59.1453 92.4647L72.2703 79.4615L94.9442 102.158C86.4036 102.177 77.8658 102.151 69.3284 102.171C68.8419 102.279 68.5409 101.835 68.2302 101.559L59.1453 92.4647Z" fill="#08589C"/>
</svg>
