<svg width="121" height="120" viewBox="0 0 121 120" fill="none" xmlns="http://www.w3.org/2000/svg">
<g clip-path="url(#clip0_3_3)">
<path d="M92.25 0H28.5C12.967 0 0.375 12.592 0.375 28.125V91.875C0.375 107.408 12.967 120 28.5 120H92.25C107.783 120 120.375 107.408 120.375 91.875V28.125C120.375 12.592 107.783 0 92.25 0Z" fill="#F03C2E"/>
<mask id="mask0_3_3" style="mask-type:luminance" maskUnits="userSpaceOnUse" x="13" y="13" width="95" height="94">
<path d="M13.5 13.125H107.25V106.875H13.5V13.125Z" fill="white"/>
</mask>
<g mask="url(#mask0_3_3)">
<path d="M105.48 55.8253L64.5497 14.8945C63.7058 14.0496 62.6302 13.4742 61.459 13.2411C60.2878 13.0081 59.0738 13.1278 57.9708 13.5853C57.2384 13.8888 56.5731 14.3337 56.0128 14.8945L47.5167 23.3906L58.298 34.1719C60.8058 33.2929 63.6769 33.8934 65.6747 35.8917C66.6257 36.8445 67.2897 38.0456 67.5906 39.3578C67.8916 40.67 67.8175 42.0404 67.3767 43.3125L77.7684 53.7042C80.2823 52.837 83.1825 53.3962 85.1892 55.409C86.1944 56.4138 86.8789 57.6943 87.156 59.0883C87.4331 60.4823 87.2904 61.9271 86.7459 63.24C86.016 65.0001 84.617 66.3984 82.8564 67.1273C81.0959 67.8563 79.1179 67.8563 77.3573 67.1273C76.4855 66.7659 75.6933 66.2367 75.0262 65.5692C72.9169 63.4598 72.3956 60.3544 73.462 57.7556L63.7706 48.0642V73.5675C64.4741 73.9155 65.117 74.3745 65.6747 74.9269C67.022 76.2742 67.7789 78.1015 67.7789 80.0069C67.7789 81.9123 67.022 83.7397 65.6747 85.087C64.3274 86.4343 62.5 87.1912 60.5946 87.1912C58.6892 87.1912 56.8618 86.4343 55.5145 85.087C54.5089 84.0827 53.824 82.8025 53.5464 81.4087C53.2689 80.0148 53.4112 78.5699 53.9555 77.257C54.3168 76.3853 54.8466 75.5934 55.5145 74.9269C56.2087 74.2354 56.9794 73.7109 57.8672 73.3594V47.6189C56.9863 47.2587 56.1863 46.7259 55.5145 46.0519C54.5058 45.0442 53.82 43.759 53.5445 42.3601C53.269 40.9612 53.4163 39.5119 53.9676 38.197L43.3331 27.569L15.2667 55.6059C14.4218 56.4503 13.8463 57.5263 13.6131 58.6978C13.3799 59.8693 13.4994 61.0836 13.9566 62.1872C14.2604 62.9199 14.7056 63.5855 15.2667 64.1461L56.2003 105.074C56.7607 105.634 57.426 106.079 58.1583 106.383C59.6377 106.995 61.2998 106.995 62.7792 106.383C63.5115 106.079 64.1768 105.634 64.7372 105.074L105.48 64.395C106.041 63.8344 106.486 63.1687 106.79 62.4361C107.094 61.7035 107.25 60.9182 107.25 60.1251C107.251 59.332 107.094 58.5465 106.79 57.8138C106.487 57.0811 106.042 56.4154 105.48 55.8548" fill="white"/>
</g>
</g>
<defs>
<clipPath id="clip0_3_3">
<rect width="120" height="120" fill="white" transform="translate(0.375)"/>
</clipPath>
</defs>
</svg>
