<svg width="121" height="120" viewBox="0 0 121 120" fill="none" xmlns="http://www.w3.org/2000/svg">
<g clip-path="url(#clip0_5_62)">
<path d="M40.7969 83.75C41.0052 83.4375 40.9271 83.099 40.5625 82.7344C40.0938 82.3698 39.7292 82.3177 39.4688 82.5781C39.2604 82.8906 39.3385 83.2292 39.7031 83.5938C40.1719 83.9583 40.5365 84.0104 40.7969 83.75ZM38.6094 80.5469C38.349 80.1823 38.0365 80.0781 37.6719 80.2344C37.3594 80.4427 37.3594 80.7552 37.6719 81.1719C38.0365 81.5885 38.349 81.7188 38.6094 81.5625C38.9219 81.3542 38.9219 81.0156 38.6094 80.5469ZM35.4062 77.4219C35.5104 77.2135 35.3802 77.0052 35.0156 76.7969C34.651 76.6927 34.4427 76.7448 34.3906 76.9531C34.2344 77.2135 34.3385 77.4219 34.7031 77.5781C35.1198 77.6823 35.3542 77.6302 35.4062 77.4219ZM37.0469 79.2188C37.151 79.1667 37.1901 79.0495 37.1641 78.8672C37.138 78.6849 37.0469 78.5417 36.8906 78.4375C36.5781 78.0729 36.3177 77.9948 36.1094 78.2031C35.901 78.4115 35.9271 78.6979 36.1875 79.0625C36.5 79.375 36.7865 79.4271 37.0469 79.2188ZM43.7656 85.0781C43.8698 84.7135 43.6354 84.4271 43.0625 84.2188C42.5938 84.0625 42.2552 84.1667 42.0469 84.5312C41.9427 84.8958 42.1771 85.1823 42.75 85.3906C43.2188 85.5469 43.5573 85.4427 43.7656 85.0781ZM47.0469 85.3125C47.0469 84.8958 46.7344 84.6875 46.1094 84.6875C45.5885 84.6875 45.3281 84.8958 45.3281 85.3125C45.3281 85.7292 45.6146 85.9375 46.1875 85.9375C46.7604 85.9375 47.0469 85.7292 47.0469 85.3125ZM50.0938 84.7656C49.9896 84.401 49.651 84.2708 49.0781 84.375C48.5052 84.4792 48.2708 84.7135 48.375 85.0781C48.4792 85.4948 48.7917 85.651 49.3125 85.5469C49.8333 85.4427 50.0938 85.1823 50.0938 84.7656ZM100.25 60C100.25 48.9583 96.3438 39.5312 88.5312 31.7188C80.7188 23.9062 71.2917 20 60.25 20C49.2083 20 39.7812 23.9062 31.9688 31.7188C24.1562 39.5312 20.25 48.9583 20.25 60C20.25 68.6979 22.8021 76.5234 27.9062 83.4766C33.0104 90.4297 39.5729 95.2604 47.5938 97.9688C48.5312 98.125 49.2214 97.9948 49.6641 97.5781C50.1068 97.1615 50.3281 96.6406 50.3281 96.0156C50.3281 93.3073 50.3021 90.8333 50.25 88.5938C49.9375 88.6458 49.5339 88.7109 49.0391 88.7891C48.5443 88.8672 47.6198 88.9193 46.2656 88.9453C44.9115 88.9714 43.6615 88.8672 42.5156 88.6328C41.3698 88.3984 40.237 87.8776 39.1172 87.0703C37.9974 86.263 37.2292 85.1823 36.8125 83.8281C35.6146 80.7552 34.1302 78.8281 32.3594 78.0469C32.2552 77.9948 32.138 77.9036 32.0078 77.7734L31.3828 77.1484L30.8359 76.4062L31.1484 75.8203L32.6719 75.5469C32.9844 75.5469 33.375 75.599 33.8438 75.7031C34.3125 75.8073 35.0938 76.2109 36.1875 76.9141C37.2812 77.6172 38.1406 78.5417 38.7656 79.6875C39.599 81.1458 40.5755 82.2396 41.6953 82.9688C42.8151 83.6979 43.9479 84.0625 45.0938 84.0625C46.2396 84.0625 47.2292 83.9714 48.0625 83.7891C48.8958 83.6068 49.6771 83.3594 50.4062 83.0469C50.7708 80.599 51.6302 78.8021 52.9844 77.6562C50.4323 77.3438 48.1927 76.862 46.2656 76.2109C44.3385 75.5599 42.4375 74.5443 40.5625 73.1641C38.6875 71.7839 37.2422 69.8047 36.2266 67.2266C35.2109 64.6484 34.7031 61.5365 34.7031 57.8906C34.7031 53.776 36.0833 50.2083 38.8438 47.1875C37.5938 43.9583 37.724 40.4167 39.2344 36.5625C40.224 36.25 41.6432 36.4453 43.4922 37.1484C45.3411 37.8516 46.9167 38.6198 48.2188 39.4531L50.25 40.7031C53.2708 39.8177 56.6042 39.375 60.25 39.375C63.8958 39.375 67.2292 39.8177 70.25 40.7031C70.8229 40.3385 71.5651 39.8698 72.4766 39.2969C73.388 38.724 74.8333 38.0469 76.8125 37.2656C78.7917 36.4844 80.276 36.25 81.2656 36.5625C82.776 40.4167 82.9062 43.9583 81.6562 47.1875C84.4167 50.2083 85.7969 53.776 85.7969 57.8906C85.7969 60.8594 85.4323 63.4766 84.7031 65.7422C83.974 68.0078 83.0495 69.8307 81.9297 71.2109C80.8099 72.5911 79.4167 73.75 77.75 74.6875C76.0833 75.625 74.4557 76.3021 72.8672 76.7188C71.2786 77.1354 69.4948 77.4479 67.5156 77.6562C69.3385 79.2708 70.25 81.7448 70.25 85.0781C70.25 87.1615 70.237 89.4792 70.2109 92.0312C70.1849 94.5833 70.1719 95.9115 70.1719 96.0156C70.1719 96.6406 70.3932 97.1615 70.8359 97.5781C71.2786 97.9948 71.9688 98.125 72.9062 97.9688C80.9271 95.2604 87.4896 90.4297 92.5938 83.4766C97.6979 76.5234 100.25 68.6979 100.25 60ZM120.25 22.5V97.5C120.25 103.698 118.049 108.997 113.648 113.398C109.247 117.799 103.948 120 97.75 120H22.75C16.5521 120 11.2526 117.799 6.85156 113.398C2.45052 108.997 0.25 103.698 0.25 97.5V22.5C0.25 16.3021 2.45052 11.0026 6.85156 6.60156C11.2526 2.20052 16.5521 0 22.75 0H97.75C103.948 0 109.247 2.20052 113.648 6.60156C118.049 11.0026 120.25 16.3021 120.25 22.5Z" fill="black"/>
</g>
<defs>
<clipPath id="clip0_5_62">
<rect width="120" height="120" fill="white" transform="translate(0.25)"/>
</clipPath>
</defs>
</svg>
