<svg width="121" height="120" viewBox="0 0 121 120" fill="none" xmlns="http://www.w3.org/2000/svg">
<g clip-path="url(#clip0_5_64)">
<path d="M92 0H28.25C12.717 0 0.125 12.592 0.125 28.125V91.875C0.125 107.408 12.717 120 28.25 120H92C107.533 120 120.125 107.408 120.125 91.875V28.125C120.125 12.592 107.533 0 92 0Z" fill="#E14E1D"/>
<path d="M22.625 17.8125L26.6609 63.0905H78.5563L76.8148 82.5108L60.1058 87.0286L43.4281 82.5173L42.313 70.0477H27.2844L29.4336 94.0856L60.1025 102.604L90.8103 94.0856L94.9273 48.1195H40.355L38.9848 32.7867H96.2839L97.625 17.8125H22.625Z" fill="white"/>
<path d="M60.125 17.8125H22.625L26.6609 63.0905H60.125V48.1195H40.355L38.9848 32.7867H60.125V17.8125ZM60.125 87.022L60.1058 87.0286L43.4281 82.5173L42.313 70.0477H27.2844L29.4336 94.0856L60.1025 102.604L60.1255 102.597L60.125 87.022Z" fill="#EBEBEB"/>
</g>
<defs>
<clipPath id="clip0_5_64">
<rect width="120" height="120" fill="white" transform="translate(0.125)"/>
</clipPath>
</defs>
</svg>
