<svg width="121" height="120" viewBox="0 0 121 120" fill="none" xmlns="http://www.w3.org/2000/svg">
<g clip-path="url(#clip0_5_159)">
<path d="M92 0H28.25C12.717 0 0.125 12.592 0.125 28.125V91.875C0.125 107.408 12.717 120 28.25 120H92C107.533 120 120.125 107.408 120.125 91.875V28.125C120.125 12.592 107.533 0 92 0Z" fill="#242938"/>
<path d="M47.7659 85.6027C47.7659 85.6027 44.1659 87.7936 50.2714 88.4203C57.6439 89.3597 61.542 89.2027 69.6809 87.6384C69.6809 87.6384 71.8719 89.0489 74.8466 90.1434C56.5302 97.9697 33.3636 89.6738 47.7659 85.6027ZM45.418 75.4284C45.418 75.4284 41.5039 78.4031 47.6089 79.028C55.5908 79.8103 61.8547 79.9673 72.6556 77.7778C72.6556 77.7778 74.0661 79.3439 76.4126 80.1263C54.3425 86.7005 29.608 80.7511 45.418 75.4299V75.4284ZM88.6227 93.2738C88.6227 93.2738 91.2833 95.4647 85.648 97.1878C75.1592 100.318 41.6609 101.259 32.2686 97.1878C28.9831 95.7773 35.2437 93.7416 37.2777 93.4308C39.313 92.9611 40.408 92.9611 40.408 92.9611C36.808 90.4561 16.4572 98.1267 30.0762 100.334C67.4886 106.44 98.3277 97.6734 88.6212 93.2897L88.6227 93.2738ZM49.4877 64.7827C49.4877 64.7827 32.4242 68.8538 43.3808 70.2609C48.0772 70.8858 57.3125 70.7306 65.9225 70.1039C72.9669 69.4786 80.0272 68.2256 80.0272 68.2256C80.0272 68.2256 77.5217 69.3216 75.8005 70.4166C58.4103 74.9602 25.0677 72.9248 34.617 68.2284C42.7592 64.3144 49.4877 64.7827 49.4877 64.7827ZM80.0108 81.8456C97.5453 72.7659 89.4031 64.0003 83.7678 65.0967C82.3573 65.4094 81.7325 65.722 81.7325 65.722C81.7325 65.722 82.2017 64.7827 83.2981 64.4719C94.4117 60.5578 103.179 76.2122 79.6986 82.3172C79.6986 82.3172 79.8556 82.1602 80.0108 81.8475V81.8456ZM51.2089 106.577C68.1153 107.673 93.9439 105.952 94.5706 97.9664C94.5706 97.9664 93.3205 101.097 80.6394 103.445C66.2384 106.106 48.3912 105.793 37.9044 104.07C37.9044 104.07 40.0953 105.948 51.2103 106.575L51.2089 106.577Z" fill="white"/>
<path d="M69.3523 13.125C69.3523 13.125 79.0573 22.987 60.117 37.8563C44.9323 49.9088 56.6713 56.7975 60.117 64.6223C51.1944 56.6405 44.7786 49.5947 49.1591 43.02C55.5927 33.3202 73.2791 28.6237 69.3523 13.125ZM64.3438 58.0509C68.8827 63.2166 63.0936 67.913 63.0936 67.913C63.0936 67.913 74.6769 61.9664 69.3556 54.6066C64.5022 47.5622 60.7456 44.1178 81.0959 32.3761C81.0959 32.3761 49.0053 40.358 64.347 58.0477L64.3438 58.0509Z" fill="#F58219"/>
</g>
<defs>
<clipPath id="clip0_5_159">
<rect width="120" height="120" fill="white" transform="translate(0.125)"/>
</clipPath>
</defs>
</svg>
