<svg width="120" height="120" viewBox="0 0 120 120" fill="none" xmlns="http://www.w3.org/2000/svg">
<g clip-path="url(#clip0_5_69)">
<path d="M91.875 0H28.125C12.592 0 0 12.592 0 28.125V91.875C0 107.408 12.592 120 28.125 120H91.875C107.408 120 120 107.408 120 91.875V28.125C120 12.592 107.408 0 91.875 0Z" fill="#F0DB4F"/>
<path d="M31.5525 100.281L40.7353 94.7231C42.5072 97.8642 44.1187 100.522 47.9845 100.522C51.69 100.522 54.0262 99.0727 54.0262 93.4345V55.0917H65.3034V93.5939C65.3034 105.274 58.4568 110.59 48.4678 110.59C39.4467 110.59 34.2103 105.918 31.552 100.28M71.4286 99.0722L80.6104 93.7561C83.0278 97.7034 86.1693 100.603 91.7268 100.603C96.3998 100.603 99.3792 98.2669 99.3792 95.0447C99.3792 91.1784 96.3183 89.8087 91.1629 87.5541L88.3443 86.3452C80.2083 82.882 74.8111 78.532 74.8111 69.3492C74.8111 60.8911 81.2554 54.4467 91.3247 54.4467C98.4937 54.4467 103.649 56.9442 107.354 63.4687L98.5739 69.1073C96.6403 65.6437 94.5468 64.2745 91.3247 64.2745C88.0218 64.2745 85.9275 66.3689 85.9275 69.1073C85.9275 72.4903 88.0218 73.86 92.8547 75.9548L95.6737 77.1628C105.259 81.2714 110.656 85.4592 110.656 94.8834C110.656 105.034 102.682 110.591 91.9687 110.591C81.4973 110.591 74.7309 105.597 71.4286 99.0722Z" fill="#323330"/>
</g>
<defs>
<clipPath id="clip0_5_69">
<rect width="120" height="120" fill="white"/>
</clipPath>
</defs>
</svg>
