<svg width="121" height="120" viewBox="0 0 121 120" fill="none" xmlns="http://www.w3.org/2000/svg">
<g clip-path="url(#clip0_3_11)">
<path d="M92.375 0H28.625C13.092 0 0.5 12.592 0.5 28.125V91.875C0.5 107.408 13.092 120 28.625 120H92.375C107.908 120 120.5 107.408 120.5 91.875V28.125C120.5 12.592 107.908 0 92.375 0Z" fill="#326CE5"/>
<path d="M60.5342 14.0625C59.7967 14.1137 59.1087 14.4527 58.6187 15.0063C58.1287 15.5599 57.8757 16.2839 57.9144 17.0222V17.7745C57.9861 18.6262 58.1141 19.47 58.2823 20.3058C58.5274 21.9068 58.6158 23.5279 58.5463 25.1461C58.3926 25.6794 58.0902 26.158 57.6744 26.5256L57.6144 27.6539C55.9944 27.7898 54.3866 28.0378 52.8027 28.3978C46.136 29.8996 40.071 33.3611 35.3872 38.3372L34.4277 37.6575C34.1668 37.7361 33.8929 37.7624 33.6218 37.7349C33.3507 37.7074 33.0878 37.6266 32.848 37.4972C31.5495 36.5363 30.3477 35.4511 29.2597 34.2572C28.7132 33.6043 28.1296 32.9835 27.5117 32.3977L26.9197 31.9256C26.3921 31.5023 25.7438 31.2573 25.0681 31.2258C24.6648 31.2043 24.2621 31.2787 23.8929 31.4427C23.5238 31.6067 23.1987 31.8557 22.9442 32.1694C22.5107 32.7781 22.3363 33.5339 22.4593 34.271C22.5823 35.0081 22.9927 35.6663 23.6005 36.1012L24.1522 36.5414C24.8627 37.0141 25.5998 37.4455 26.36 37.8333C27.7864 38.622 29.1246 39.5606 30.3519 40.6331C30.669 41.0853 30.8531 41.6173 30.8834 42.1687L31.7553 42.9689C27.0485 50.0344 25.1145 58.5883 26.3239 66.9914L25.2036 67.3116C24.9136 67.7764 24.5227 68.17 24.0598 68.4633C22.4974 68.8809 20.898 69.1448 19.2842 69.2512C18.428 69.2689 17.5734 69.3357 16.7248 69.4514L16.0166 69.6112H15.9369C15.5693 69.6621 15.2164 69.7888 14.9004 69.9832C14.5843 70.1777 14.3121 70.4356 14.101 70.7407C13.8899 71.0458 13.7444 71.3915 13.6739 71.7558C13.6033 72.12 13.6092 72.495 13.6911 72.8569C13.8005 73.3407 14.0419 73.7846 14.3886 74.1394C14.7386 74.4921 15.1798 74.7406 15.6629 74.8571C16.146 74.9736 16.6519 74.9534 17.1242 74.7989H17.1763L17.8962 74.7192C18.7102 74.4762 19.5089 74.1851 20.2883 73.8473C21.7897 73.2444 23.3463 72.7889 24.9359 72.4875C25.486 72.5194 26.0159 72.7065 26.4641 73.027L27.6641 72.8273C30.2623 80.8937 35.7265 87.7282 43.0231 92.0381L42.5352 93.0581C42.7596 93.5254 42.843 94.048 42.7752 94.5619C42.114 96.0923 41.3062 97.5551 40.363 98.9297C39.8453 99.6123 39.3673 100.324 38.9314 101.062L38.5911 101.782C38.4068 102.102 38.2906 102.456 38.2498 102.824C38.209 103.191 38.2445 103.562 38.3541 103.915C38.4637 104.268 38.645 104.594 38.8866 104.873C39.1283 105.153 39.425 105.379 39.7583 105.539C40.2041 105.751 40.7 105.837 41.1912 105.786C41.6837 105.73 42.1511 105.539 42.5416 105.234C42.932 104.929 43.2303 104.522 43.4033 104.057L43.7347 103.378C44.0376 102.58 44.2941 101.765 44.503 100.938C45.2108 99.1898 45.5952 97.3139 46.5627 96.1538C46.8792 95.8565 47.2779 95.6615 47.7069 95.5941L48.3069 94.5019C56.2154 97.5418 64.9663 97.5631 72.8895 94.5619L73.4211 95.5819C73.965 95.6648 74.454 95.9595 74.7814 96.4017C75.5316 97.8331 76.1424 99.3332 76.6053 100.882C76.8169 101.71 77.0759 102.526 77.3811 103.326L77.713 104.005C77.8437 104.351 78.0445 104.666 78.3029 104.931C78.5612 105.195 78.8715 105.403 79.2141 105.542C79.5568 105.681 79.9244 105.748 80.294 105.738C80.6636 105.727 81.0271 105.641 81.3617 105.484C81.8092 105.273 82.1897 104.943 82.4609 104.529C82.7296 104.114 82.8778 103.631 82.8891 103.137C82.9003 102.642 82.7742 102.153 82.5247 101.726L82.1769 101.006C81.741 100.271 81.2628 99.5616 80.7448 98.8819C79.8252 97.5539 79.033 96.1378 78.3448 94.6542C78.2805 94.3828 78.2715 94.1013 78.3183 93.8264C78.3651 93.5514 78.4667 93.2887 78.6172 93.0539C78.4464 92.7051 78.298 92.3458 78.1728 91.9781C85.454 87.6358 90.8936 80.7779 93.4644 72.6994L94.6002 72.8991C95.0072 72.5288 95.5421 72.331 96.0922 72.3473C97.6798 72.6511 99.2356 73.147 100.74 73.7072C101.517 74.0641 102.316 74.3714 103.131 74.6273C103.324 74.6794 103.603 74.723 103.82 74.775H103.872C104.344 74.9279 104.849 74.9465 105.331 74.8289C105.813 74.7113 106.253 74.462 106.601 74.1089C106.95 73.7559 107.194 73.3131 107.306 72.8297C107.418 72.3464 107.393 71.8416 107.235 71.3714C107.074 70.9015 106.785 70.4858 106.4 70.1708C106.016 69.8557 105.552 69.6537 105.059 69.5873L104.284 69.4036C103.435 69.2877 102.58 69.2209 101.724 69.2034C100.11 69.0997 98.51 68.8357 96.9481 68.4155C96.4654 68.1448 96.0668 67.7463 95.7959 67.2638L94.7159 66.9436C95.8674 58.5441 93.8948 50.0142 89.1725 42.9731L90.1166 42.1013C90.0775 41.5517 90.2556 41.0087 90.6125 40.5891C91.8397 39.5358 93.1656 38.6035 94.572 37.8052C95.3321 37.4172 96.0693 36.9859 96.7798 36.5133L97.3639 36.0413C97.6852 35.8415 97.9606 35.5761 98.172 35.2624C98.3834 34.9486 98.5261 34.5937 98.5905 34.2209C98.655 33.8481 98.6398 33.4659 98.546 33.0994C98.4523 32.7329 98.282 32.3904 98.0464 32.0944C97.8107 31.7985 97.5151 31.5559 97.1789 31.3825C96.8427 31.2091 96.4736 31.1089 96.0959 31.0884C95.7182 31.0679 95.3404 31.1276 94.9875 31.2636C94.6345 31.3995 94.3143 31.6087 94.048 31.8773L93.4564 32.3494C92.8387 32.9354 92.255 33.5565 91.7084 34.2094C90.6528 35.4163 89.4834 36.5188 88.2163 37.5014C87.7046 37.7097 87.1449 37.7705 86.6005 37.6772L85.5884 38.3972C79.7458 32.2738 71.8792 28.479 63.4498 27.7177C63.4498 27.3178 63.3978 26.7178 63.3898 26.5298C62.9366 26.2184 62.6235 25.7416 62.518 25.2019C62.4624 23.5865 62.5641 21.9695 62.8217 20.3738C62.9938 19.5342 63.1138 18.6942 63.1897 17.8425V17.0423C63.229 16.3039 62.9762 15.5796 62.4861 15.0258C61.9959 14.4721 61.3076 14.1333 60.5698 14.0827L60.5342 14.0625ZM57.1981 34.725L56.3984 48.6966H56.3384C56.2981 49.5605 55.7905 50.2964 55.0105 50.7127C54.2305 51.1284 53.3066 51.0047 52.6105 50.4966L41.1509 42.3769C44.7984 38.7945 49.3741 36.3024 54.3622 35.1816C55.2965 34.9819 56.2404 34.8297 57.1902 34.7255L57.1981 34.725ZM63.8698 34.725C69.8887 35.4736 75.4955 38.1773 79.8289 42.4209L68.4777 50.4886C68.1338 50.7631 67.7198 50.9356 67.2828 50.9864C66.8457 51.0373 66.4032 50.9645 66.0055 50.7764C65.608 50.5876 65.2713 50.2912 65.0338 49.9207C64.7962 49.5503 64.6673 49.1207 64.6616 48.6806L63.8698 34.725ZM36.9917 47.6325L47.4706 56.9841V57.0441C47.7904 57.3239 48.0284 57.6852 48.1593 58.0894C48.2903 58.4936 48.3094 58.9258 48.2145 59.34C48.1192 59.7535 47.9139 60.1334 47.6203 60.4397C47.3267 60.7461 46.9558 60.9673 46.5467 61.08V61.1198L33.0997 64.9875C32.4341 58.9292 33.8047 52.8218 36.995 47.6288L36.9917 47.6325ZM84.0008 47.6325C87.1849 52.8115 88.5921 58.8882 88.0086 64.9397L74.5414 61.0598V61.0078C74.131 60.8978 73.7585 60.6774 73.4644 60.3707C73.1703 60.0639 72.9658 59.6825 72.8731 59.2678C72.78 58.8536 72.7999 58.422 72.9309 58.0181C73.0618 57.6142 73.299 57.253 73.6175 56.9723L84.0167 47.6648L84.0008 47.6325ZM58.3859 57.712H62.6741L65.2939 61.0397L64.3419 65.1998L60.4902 67.0514L56.63 65.1998L55.722 61.0397L58.3859 57.712ZM72.1213 69.0633C72.3007 69.0435 72.4818 69.0435 72.6613 69.0633L86.5288 71.4033C84.5286 77.1628 80.5808 82.0828 75.4292 85.3744L70.0695 72.3994C69.922 72.0513 69.8604 71.6728 69.89 71.2959C69.9346 70.7273 70.1836 70.1941 70.5908 69.7947C70.998 69.3954 71.5359 69.1569 72.1053 69.1233L72.1213 69.0633ZM48.8305 69.1233C49.2163 69.1299 49.5945 69.231 49.9321 69.418C50.2696 69.6049 50.5561 69.8718 50.7664 70.1953C50.9765 70.5181 51.1036 70.8879 51.1364 71.2717C51.1692 71.6554 51.1067 72.0414 50.9544 72.3952V72.4472L45.627 85.3186C40.5285 82.049 36.6509 77.1888 34.5955 71.4914L48.3425 69.1594C48.4948 69.1434 48.6505 69.1434 48.8066 69.1594L48.8305 69.1233ZM60.4461 74.723C60.883 74.7094 61.3152 74.8174 61.6944 75.0349C62.0736 75.2524 62.385 75.5708 62.5939 75.9548H62.6459L69.4217 88.1822L66.7138 88.9823C61.7283 90.1225 56.524 89.8539 51.6823 88.2066L58.482 75.9792C58.8941 75.2592 59.6539 74.8191 60.4822 74.7989L60.4461 74.723Z" fill="white" stroke="white" stroke-width="0.11"/>
</g>
<defs>
<clipPath id="clip0_3_11">
<rect width="120" height="120" fill="white" transform="translate(0.5)"/>
</clipPath>
</defs>
</svg>
