<svg width="120" height="120" viewBox="0 0 120 120" fill="none" xmlns="http://www.w3.org/2000/svg">
<g clip-path="url(#clip0_5_127)">
<path d="M91.875 0H28.125C12.592 0 0 12.592 0 28.125V91.875C0 107.408 12.592 120 28.125 120H91.875C107.408 120 120 107.408 120 91.875V28.125C120 12.592 107.408 0 91.875 0Z" fill="#242938"/>
<path fill-rule="evenodd" clip-rule="evenodd" d="M101.178 36.7097C101.208 36.8236 101.224 36.9413 101.224 37.0599V55.4344C101.224 55.6702 101.162 55.9017 101.046 56.1057C100.93 56.3092 100.762 56.4785 100.56 56.5964L85.3509 65.4755V83.0747C85.3516 83.3092 85.291 83.5398 85.1752 83.7437C85.0593 83.9476 84.8922 84.1177 84.6905 84.2372L52.943 102.769C52.8703 102.811 52.7911 102.838 52.7119 102.866C52.6819 102.877 52.6542 102.895 52.6228 102.903C52.4009 102.962 52.1674 102.962 51.9455 102.903C51.9094 102.893 51.8761 102.873 51.8414 102.86C51.7687 102.833 51.6928 102.81 51.6234 102.769L19.8825 84.2372C19.6804 84.119 19.5129 83.9498 19.3969 83.7464C19.2802 83.5418 19.2188 83.3103 19.2188 83.0747V27.9511C19.2188 27.8302 19.2352 27.713 19.2652 27.5996C19.2745 27.5606 19.298 27.5255 19.3111 27.4871C19.3359 27.4167 19.3589 27.345 19.3955 27.2794C19.4203 27.2358 19.4564 27.2006 19.4864 27.1608C19.5239 27.1069 19.5591 27.0516 19.6036 27.0047C19.6411 26.9663 19.6912 26.9377 19.7339 26.9044C19.7817 26.8641 19.8248 26.8205 19.8792 26.7886H19.8811L35.7516 17.5228C35.9521 17.4058 36.1801 17.3441 36.4123 17.3441C36.6444 17.3441 36.8724 17.4058 37.073 17.5228L52.9444 26.7886H52.9477C53.0002 26.8224 53.0452 26.8641 53.093 26.9025C53.1356 26.9363 53.1834 26.9663 53.2214 27.0033C53.2678 27.0516 53.3011 27.1069 53.3405 27.1608C53.3686 27.2006 53.4066 27.2358 53.4295 27.2794C53.4675 27.3464 53.4891 27.4167 53.5158 27.4871C53.5289 27.5255 53.5519 27.5606 53.5617 27.601C53.5922 27.7153 53.6077 27.833 53.6081 27.9511V62.3808L66.8334 54.6591V37.0575C66.8334 36.9403 66.8498 36.8217 66.8798 36.7097C66.8916 36.6694 66.9127 36.6342 66.9262 36.5958C66.9525 36.5255 66.9755 36.4533 67.012 36.3881C67.0369 36.3446 67.073 36.3094 67.1011 36.2691C67.1409 36.2156 67.1737 36.1603 67.2202 36.1135C67.2581 36.075 67.3059 36.0464 67.3491 36.0127C67.3983 35.9728 67.4414 35.9292 67.4944 35.8974H67.4962L83.3691 26.6311C83.5694 26.5138 83.7974 26.452 84.0295 26.452C84.2617 26.452 84.4896 26.5138 84.69 26.6311L100.561 35.8974C100.618 35.9311 100.66 35.9724 100.71 36.0113C100.751 36.0446 100.799 36.075 100.837 36.1116C100.883 36.1603 100.916 36.2156 100.956 36.2691C100.986 36.3094 101.022 36.3441 101.045 36.3881C101.083 36.4538 101.105 36.5255 101.131 36.5958C101.146 36.6342 101.168 36.6694 101.178 36.7097ZM98.5776 54.6591V39.3792L93.0234 42.6211L85.3505 47.101V62.3808L98.5791 54.6591H98.5776ZM82.7062 82.2994V67.0097L75.1589 71.3808L53.6062 83.8538V99.2874L82.7062 82.2994ZM21.8644 30.2705V82.2994L50.9611 99.286V83.8552L35.7605 75.1317L35.7558 75.1285L35.7487 75.1252C35.6977 75.0952 35.655 75.0516 35.6067 75.0146C35.5655 74.9813 35.5177 74.9546 35.4816 74.9175L35.4783 74.9128C35.4352 74.8706 35.4052 74.8191 35.3691 74.7717C35.3363 74.7267 35.2964 74.6883 35.2702 74.6414L35.2683 74.6363C35.2383 74.5861 35.22 74.5257 35.1989 74.4689C35.1773 74.4188 35.1492 74.3719 35.1361 74.318V74.3161C35.1197 74.2528 35.1164 74.1858 35.1094 74.1202C35.1028 74.07 35.0897 74.0199 35.0897 73.9697V37.9927L27.4186 33.511L21.8644 30.2719V30.2705ZM36.4144 20.2322L23.1909 27.9516L36.4111 35.67L49.6331 27.9497L36.4111 20.2327L36.4144 20.2322ZM43.2914 68.4028L50.963 63.9249V30.2705L45.4083 33.5128L37.7358 37.9922V71.6471L43.2914 68.4028ZM84.03 29.341L70.8075 37.0599L84.03 44.7783L97.2501 37.058L84.03 29.341ZM82.7067 47.101L75.0337 42.6211L69.48 39.3792V54.6591L77.1511 59.1371L82.7067 62.3808V47.101ZM52.2825 81.5344L71.6761 70.3069L81.3708 64.6969L68.1586 56.9832L52.9462 65.8641L39.0816 73.958L52.2825 81.5344Z" fill="#FF2D20"/>
</g>
<defs>
<clipPath id="clip0_5_127">
<rect width="120" height="120" fill="white"/>
</clipPath>
</defs>
</svg>
