<svg width="121" height="120" viewBox="0 0 121 120" fill="none" xmlns="http://www.w3.org/2000/svg">
<g clip-path="url(#clip0_5_77)">
<path d="M92.75 0H29C13.467 0 0.875 12.592 0.875 28.125V91.875C0.875 107.408 13.467 120 29 120H92.75C108.283 120 120.875 107.408 120.875 91.875V28.125C120.875 12.592 108.283 0 92.75 0Z" fill="#242938"/>
<path d="M41.1641 93.7153L52.6625 100.1H70.0513L86.3178 87.8864L93.6097 68.7337L76.782 48.4711L72.0144 37.0908L48.7363 37.9233L49.0166 44.3076L44.5292 52.6345L37.5177 66.2358L36.1156 77.6161L41.1641 93.7153Z" fill="#ECEFF1"/>
<path d="M88.5612 53.745C84.0739 47.3606 80.428 43.4747 78.4648 35.4253C76.5017 27.3755 79.0259 29.5964 77.3431 22.6566C76.5017 19.0486 75.0992 16.5502 73.6972 14.6072C72.0144 12.6642 70.0513 11.5537 68.9291 11.2762C66.4053 9.88875 60.5155 7.66781 53.2236 11.5537C45.6509 15.4397 46.4923 23.767 47.8948 40.6992C47.8948 41.8092 47.6141 43.1977 47.0534 44.3077C45.9317 46.8061 43.9681 49.0261 42.2858 50.9695C40.3222 53.745 38.3591 56.5209 36.957 59.5739C33.5914 65.9583 30.5061 74.0076 31.3475 77.0611C32.75 76.7836 50.4191 103.431 50.4191 103.986C51.5408 103.708 56.3084 103.708 60.5155 103.708C66.4053 103.431 69.7705 103.153 74.5386 104.263C74.5386 103.431 74.2578 102.598 74.2578 101.765C74.2578 100.1 74.5386 98.7117 74.8189 96.7687C75.0992 95.3808 75.38 93.9933 75.6603 92.3278C72.8558 94.8258 67.8073 97.6017 63.0397 98.4342C58.8327 99.2667 51.8211 97.8792 48.4555 93.7153C48.7363 93.7153 49.2969 93.7153 49.5777 93.4378C50.4191 93.1603 51.2605 92.8828 51.5408 92.3278C52.3822 90.9398 51.8211 89.5519 51.2605 88.7194C50.6994 87.8864 46.4923 84.833 44.5292 83.168C42.5661 81.5025 41.4444 80.6695 40.3222 79.5595L38.0788 77.3386C37.5177 76.7836 37.2373 76.2286 36.957 75.9506C36.3959 74.5631 36.1156 72.8976 36.3959 70.6772C36.6763 67.6237 37.798 65.1253 39.2005 62.3498C39.7616 61.2394 41.1636 59.0189 41.1636 59.0189C41.1636 59.0189 36.3959 70.6772 38.9202 74.2856C38.9202 74.2856 39.2005 70.6772 40.3222 67.0687C41.1636 64.5703 42.5661 60.9619 44.2489 59.0189C45.9317 57.0759 50.1383 49.8591 50.4191 45.4176C50.4191 43.4747 50.6994 41.5317 50.6994 40.1442C49.5777 39.0333 69.2098 36.2583 70.3316 39.3112C70.6119 40.4217 74.5386 50.4141 76.782 55.688C77.9038 58.1864 79.3063 60.4069 80.1477 63.1823C80.9891 66.2358 81.5497 70.3992 81.5497 74.5631C81.5497 75.3956 81.5497 76.7836 81.2694 78.1716C81.8305 78.1716 92.7683 66.5133 79.8673 56.7984C79.8673 56.7984 87.7198 60.4069 88.0006 67.6237C88.2809 73.4527 85.7567 78.1716 85.1961 79.0041C85.4764 79.0041 91.0855 81.5025 91.3658 81.5025C92.488 81.5025 94.7314 80.6695 94.7314 80.6695C95.0122 79.837 95.8531 77.6161 95.8531 76.7836C97.8167 70.3992 93.0486 60.1294 88.5612 53.745Z" fill="#263238"/>
<path d="M52.9428 35.4253C54.9566 35.4253 56.5887 32.9395 56.5887 29.8739C56.5887 26.8078 54.9566 24.3225 52.9428 24.3225C50.9295 24.3225 49.2969 26.8078 49.2969 29.8739C49.2969 32.9395 50.9295 35.4253 52.9428 35.4253ZM65.5634 35.9803C68.1969 35.9803 70.3316 33.1219 70.3316 29.5959C70.3316 26.0705 68.1969 23.212 65.5634 23.212C62.9305 23.212 60.7958 26.0705 60.7958 29.5964C60.7958 33.1219 62.9305 35.9803 65.5634 35.9803Z" fill="#ECEFF1"/>
<path d="M54.98 30.2536C54.747 28.4287 53.6858 27.0581 52.61 27.1927C51.5347 27.3272 50.8513 28.9158 51.0847 30.7411C51.3177 32.5659 52.3784 33.9366 53.4542 33.802C54.53 33.667 55.213 32.0784 54.98 30.2536ZM65.2831 34.3148C66.8324 34.3148 68.0877 32.6995 68.0877 30.7064C68.0877 28.7137 66.8324 27.098 65.2831 27.098C63.7344 27.098 62.4786 28.7137 62.4786 30.7064C62.4786 32.6995 63.7344 34.3148 65.2831 34.3148Z" fill="#212121"/>
<path d="M102.584 91.7724C101.463 91.2174 99.4991 90.3844 97.8163 87.8864C96.9753 86.4985 97.2556 82.6125 95.8531 80.947C95.0117 79.837 93.89 80.3921 93.6097 80.3921C91.0855 80.9471 85.1956 84.833 81.2694 80.3921C80.7083 79.8371 79.8669 79.0041 78.4648 79.0041C77.0623 79.0041 76.5017 79.5591 75.9406 80.6696C75.3795 81.78 75.3795 82.6125 75.3795 85.3885C75.3795 87.6089 75.3795 90.1069 75.0992 92.0499C74.5381 96.7688 73.6972 99.5447 73.6972 102.32C73.6972 105.374 74.5381 107.317 75.6603 108.149C76.5017 108.982 77.9038 109.537 80.9891 109.537C84.0739 109.537 86.037 108.427 88.0006 106.484C89.4027 105.096 90.5244 104.541 94.4511 101.765C97.5359 99.8222 102.304 97.3238 103.145 96.4913C103.706 95.9363 104.548 95.6583 104.548 93.9928C104.548 92.6053 103.426 92.0499 102.584 91.7724ZM46.212 92.6053C43.4075 88.1639 43.1267 87.3314 41.1636 84.5555C39.4808 81.78 35.8348 76.5061 33.5914 76.5061C31.9086 76.5061 31.0672 77.3386 29.9455 78.4491C28.8233 79.5591 27.7016 82.0575 25.7384 83.4455C24.0556 84.833 19.288 84.5555 18.1662 86.221C17.0441 87.8864 19.288 90.3849 19.288 94.5483C19.288 96.2138 17.8855 97.3238 17.6052 98.4342C17.3248 99.8222 17.0441 100.655 17.6052 101.765C18.7269 103.431 20.1294 103.986 29.6647 105.929C34.7131 107.039 39.4808 109.815 42.5661 110.093C45.6509 110.37 50.9797 110.093 50.9797 102.598C51.2605 98.1567 48.7362 97.0463 46.212 92.6053ZM51.5408 42.3647C49.858 41.2542 48.4555 40.1438 48.4555 38.4788C48.4555 36.8133 49.5777 36.2578 51.2605 34.8703C51.5408 34.5924 54.6256 31.8169 57.7109 31.8169C60.7958 31.8169 64.4417 33.7599 65.8442 34.3153C68.3684 34.8699 70.8922 35.4253 70.6119 37.3683C70.3316 40.1438 70.0512 40.6992 67.2462 42.0872C65.2831 42.6422 61.6372 45.6956 59.113 45.6956C57.9912 45.6956 56.3084 45.6956 55.1867 45.4177C54.3453 45.1402 52.9428 43.7522 51.5408 42.3647Z" fill="#FFC107"/>
<path d="M50.9797 40.1437C51.5408 40.6992 52.3822 41.2547 53.2236 41.5317C53.7842 41.8092 54.6256 42.0872 54.6256 42.0872H57.1499C58.5524 42.0872 60.5155 41.5317 62.4786 40.4217C64.4417 39.5887 64.7225 39.0337 66.1245 38.4787C67.527 37.6458 68.9291 36.8133 68.3684 36.5358C67.8073 36.2578 67.2463 36.5358 65.2831 37.6458C63.6003 38.7562 62.1983 39.3112 60.5155 40.1442C59.6741 40.4217 58.5524 40.9767 57.7109 40.9767H55.1867C54.3453 40.9767 53.7842 40.6992 52.9428 40.4217C52.3822 40.1437 52.1014 39.8662 51.8211 39.8662C51.2605 39.5887 50.1383 38.4787 49.5777 38.2008C49.5777 38.2008 49.0166 38.2008 49.2969 38.4787L50.9797 40.1437ZM59.3938 34.0373C59.6741 34.5923 60.2352 34.5923 60.5155 34.8698C60.7958 35.1478 61.0761 35.1478 61.0761 35.1478C61.3569 34.8698 61.0761 34.3148 60.7958 34.3148C60.7958 33.7598 59.3938 33.7598 59.3938 34.0373ZM54.9064 34.5923C54.9064 34.8703 55.467 35.1478 55.467 34.8703C55.7478 34.5923 56.0281 34.3148 56.3084 34.3148C56.8695 34.0373 56.5888 33.7598 55.7478 33.7598C55.1867 34.0373 55.1867 34.3148 54.9064 34.5923Z" fill="#634703"/>
<path d="M82.1108 83.723V84.5555C82.6719 85.6659 84.0739 85.9434 85.1956 85.9434C86.8784 85.9434 88.5613 84.833 89.4027 83.723C89.4027 83.4455 89.683 83.1675 89.9638 82.89C90.5244 82.0575 90.8052 81.5025 91.0855 81.2245C91.0855 81.2245 90.8052 80.947 90.8052 80.6695C90.5244 80.1145 89.683 79.5591 88.5613 79.2816C87.7199 79.0041 86.3178 78.7266 85.7567 78.7266C83.2325 78.4491 81.8305 79.2815 80.9891 80.1145C80.9891 80.1145 81.2694 80.1145 81.2694 80.392C81.8305 80.947 82.1108 81.5025 82.1108 82.335C82.3911 82.89 82.1108 83.1675 82.1108 83.723Z" fill="#455A64"/>
</g>
<defs>
<clipPath id="clip0_5_77">
<rect width="120" height="120" fill="white" transform="translate(0.875)"/>
</clipPath>
</defs>
</svg>
