<svg width="121" height="120" viewBox="0 0 121 120" fill="none" xmlns="http://www.w3.org/2000/svg">
<g clip-path="url(#clip0_5_98)">
<path d="M92.5 0H28.75C13.217 0 0.625 12.592 0.625 28.125V91.875C0.625 107.408 13.217 120 28.75 120H92.5C108.033 120 120.625 107.408 120.625 91.875V28.125C120.625 12.592 108.033 0 92.5 0Z" fill="#023430"/>
<path d="M80.8623 50.4333C75.9231 28.6453 65.6294 22.845 63.0034 18.7448C61.9205 16.9386 60.9613 15.061 60.1323 13.125C59.9936 15.0609 59.7386 16.2797 58.0933 17.7478C54.79 20.693 40.7603 32.1258 39.5795 56.8819C38.4794 79.9641 56.5483 94.1967 58.9352 95.6681C60.7708 96.5714 63.0063 95.6873 64.097 94.8581C72.8069 88.8806 84.7075 72.9441 80.8717 50.4333" fill="#10AA50"/>
<path d="M60.8805 83.377C60.4258 89.0901 60.1 92.4098 58.945 95.6747C58.945 95.6747 59.703 101.114 60.2355 106.875H62.1194C62.5688 102.818 63.2549 98.7903 64.1744 94.8131C61.7355 93.6131 60.9742 88.3903 60.8805 83.377Z" fill="#B8C4C2"/>
<path d="M64.1711 94.8164C61.7064 93.6778 60.9934 88.3448 60.8837 83.377C61.4931 75.1819 61.6708 66.9604 61.4162 58.7465C61.2869 54.4369 61.4772 18.8287 60.3545 13.6153C61.1226 15.381 62.0075 17.0936 63.0034 18.7415C65.6294 22.845 75.9264 28.6453 80.8623 50.4333C84.7075 72.9056 72.8716 88.8 64.1711 94.8164Z" fill="#12924F"/>
</g>
<defs>
<clipPath id="clip0_5_98">
<rect width="120" height="120" fill="white" transform="translate(0.625)"/>
</clipPath>
</defs>
</svg>
