<svg width="121" height="120" viewBox="0 0 121 120" fill="none" xmlns="http://www.w3.org/2000/svg">
<g clip-path="url(#clip0_5_104)">
<path d="M92.375 0H28.625C13.092 0 0.5 12.592 0.5 28.125V91.875C0.5 107.408 13.092 120 28.625 120H92.375C107.908 120 120.5 107.408 120.5 91.875V28.125C120.5 12.592 107.908 0 92.375 0Z" fill="#242938"/>
<mask id="mask0_5_104" style="mask-type:luminance" maskUnits="userSpaceOnUse" x="18" y="17" width="85" height="86">
<path d="M18.3125 17.8125H102.688V102.188H18.3125V17.8125Z" fill="white"/>
</mask>
<g mask="url(#mask0_5_104)">
<path fill-rule="evenodd" clip-rule="evenodd" d="M96.0317 83.5359C91.4426 83.4084 87.8825 83.8786 84.8989 85.1339C84.0397 85.4789 82.6611 85.4789 82.5477 86.5603C83.007 87.0141 83.0623 87.7566 83.465 88.3856C84.1527 89.527 85.3592 91.0645 86.4486 91.8624L90.1208 94.4864C92.3586 95.8538 94.8833 96.653 97.0634 98.0217C98.3262 98.8205 99.5881 99.847 100.851 100.703C101.494 101.16 101.884 101.903 102.687 102.186V102.014C102.286 101.502 102.17 100.761 101.771 100.188L100.047 98.5355C98.3844 96.3117 96.3172 94.3711 94.0794 92.7759C92.2428 91.5211 88.2275 89.8106 87.4812 87.7017L87.3683 87.5738C88.6287 87.4463 90.1208 87.0023 91.3269 86.6602C93.2792 86.1488 95.0567 86.2612 97.0634 85.7484L99.8197 84.9497V84.4383C98.7866 83.4122 98.0408 82.043 96.9514 81.0745C94.0255 78.5653 90.8098 76.1123 87.4812 74.0597C85.7028 72.9197 83.4069 72.1767 81.5136 71.2092C80.8231 70.8666 79.677 70.6955 79.2758 70.1255C78.2403 68.873 77.668 67.2173 76.9222 65.7338L72.2173 55.8113C71.1847 53.587 70.5519 51.3628 69.2914 49.3102C63.38 39.615 56.952 33.742 47.082 27.9811C44.96 26.7834 42.4353 26.2683 39.7508 25.642L35.4477 25.4123C34.528 25.0134 33.6106 23.9292 32.8072 23.4155C29.5362 21.3623 21.1006 16.9148 18.6884 22.7766C17.1392 26.483 20.9848 30.1322 22.2903 32.0152C23.2677 33.3267 24.5281 34.8089 25.2186 36.292C25.6044 37.2609 25.7333 38.2884 26.1359 39.315C27.0528 41.8238 27.9144 44.6194 29.1195 46.9584C29.7627 48.1561 30.4381 49.4123 31.2416 50.4952C31.7009 51.1341 32.5048 51.4078 32.6759 52.4339C31.872 53.5753 31.8167 55.2844 31.3573 56.7122C29.2906 63.1566 30.0945 71.1403 33.0205 75.885C33.9402 77.31 36.1072 80.4478 39.0477 79.2492C41.63 78.2227 41.0539 74.9723 41.7997 72.1205C41.9731 71.437 41.8578 70.9805 42.2009 70.523V70.6509L44.5545 75.3839C46.3334 78.1781 49.4333 81.0872 52.0142 83.0273C53.3905 84.0539 54.4812 85.823 56.202 86.4492V86.2767H56.0891C55.7441 85.7653 55.227 85.5352 54.7681 85.1363C53.7355 84.1102 52.588 82.8548 51.7841 81.7148C49.3752 78.5217 47.2531 74.985 45.3584 71.3358C44.4392 69.5681 43.6353 67.6289 42.8919 65.8613C42.5445 65.1764 42.5445 64.1484 41.9722 63.8086C41.1102 65.0611 39.8502 66.1477 39.2159 67.6866C38.1252 70.1381 38.0122 73.1611 37.6109 76.298C37.3794 76.3552 37.482 76.298 37.3794 76.4255C35.5452 75.9708 34.9123 74.0864 34.2247 72.4913C32.5034 68.4422 32.2152 61.9411 33.7072 57.2644C34.1084 56.0667 35.832 52.3027 35.1439 51.1622C34.797 50.0784 33.6519 49.4522 33.0191 48.5958C32.2733 47.512 31.4722 46.1442 30.9552 44.9466C29.5789 41.7511 28.8908 38.2167 27.3973 35.0231C26.7069 33.54 25.5031 31.9997 24.5267 30.6323C23.4359 29.092 22.2336 28.0078 21.372 26.1839C21.0852 25.545 20.6839 24.5302 21.1428 23.8448C21.2562 23.3888 21.4873 23.2059 21.9444 23.1038C22.6897 22.4644 24.815 23.2748 25.5608 23.6147C27.6828 24.4711 29.4617 25.2689 31.2406 26.4652C32.0445 27.0352 32.9061 28.1194 33.9387 28.4058H35.1453C36.9819 28.8042 39.0462 28.5333 40.7656 29.0447C43.8078 30.0159 46.5612 31.44 49.0306 32.9813C56.547 37.7147 62.7462 44.4441 66.9336 52.4864C67.6217 53.798 67.9086 54.9956 68.5414 56.3644C69.748 59.16 71.24 62.0105 72.4423 64.7494C73.6489 67.4297 74.7959 70.1691 76.5172 72.3928C77.3787 73.5905 80.8203 74.2167 82.3691 74.8444C83.5175 75.3558 85.295 75.8161 86.3305 76.4423C88.28 77.64 90.2314 79.0088 92.0666 80.3203C92.9834 81.0028 95.8545 82.4292 96.0252 83.5669L96.0317 83.5359ZM37.5116 33.9783C36.7189 33.9713 35.9288 34.0671 35.1608 34.2633V34.3913H35.2737C35.7331 35.3039 36.537 35.9316 37.1103 36.7303L38.4312 39.4678L38.5447 39.3403C39.3481 38.7703 39.7508 37.8577 39.7508 36.4903C39.4062 36.0914 39.3495 35.6911 39.0627 35.2922C38.7181 34.7222 37.9723 34.4358 37.5116 33.9811V33.9783Z" fill="white"/>
</g>
</g>
<defs>
<clipPath id="clip0_5_104">
<rect width="120" height="120" fill="white" transform="translate(0.5)"/>
</clipPath>
</defs>
</svg>
