<svg width="120" height="120" viewBox="0 0 120 120" fill="none" xmlns="http://www.w3.org/2000/svg">
<g clip-path="url(#clip0_5_164)">
<path d="M91.875 0H28.125C12.592 0 0 12.592 0 28.125V91.875C0 107.408 12.592 120 28.125 120H91.875C107.408 120 120 107.408 120 91.875V28.125C120 12.592 107.408 0 91.875 0Z" fill="#242938"/>
<path d="M80.9939 45.6586L80.9597 45.6441C80.9405 45.6366 80.9208 45.6295 80.9034 45.6122C80.8752 45.5822 80.8543 45.5461 80.8424 45.5066C80.8305 45.4671 80.828 45.4255 80.835 45.3849L82.725 33.8297L91.5886 42.6952L82.3706 46.6172C82.345 46.6275 82.3176 46.6324 82.29 46.6317H82.2534C82.2353 46.6202 82.2188 46.6063 82.2042 46.5905C81.8612 46.2084 81.4509 45.8926 80.9939 45.6586ZM93.8498 44.9545L103.327 54.4313C105.295 56.4024 106.281 57.3849 106.64 58.5244C106.694 58.6931 106.738 58.8619 106.772 59.0353L84.1238 49.4438L84.0872 49.4288C83.9967 49.3922 83.8913 49.3505 83.8913 49.2577C83.8913 49.1649 83.9991 49.1208 84.0895 49.0842L84.1186 49.072L93.8498 44.9545ZM106.386 62.077C105.897 62.9963 104.943 63.9502 103.329 65.5659L92.6447 76.2483L78.8255 73.3706L78.7519 73.3561C78.6295 73.3364 78.5002 73.3144 78.5002 73.2042C78.4476 72.6342 78.2782 72.0811 78.0027 71.5794C77.7271 71.0776 77.3512 70.6379 76.8984 70.2877C76.8422 70.2314 76.8572 70.1433 76.8741 70.0627C76.8741 70.0505 76.8741 70.0383 76.8792 70.0284L79.478 54.0722L79.4878 54.0183C79.5028 53.896 79.5244 53.7544 79.6345 53.7544C80.1916 53.6851 80.7292 53.5057 81.2162 53.2265C81.7032 52.9473 82.1297 52.574 82.4709 52.1283C82.493 52.1039 82.5075 52.0767 82.537 52.0622C82.6153 52.0256 82.7081 52.0622 82.7887 52.0964L106.383 62.077H106.386ZM90.1875 78.7055L72.6173 96.2756L75.6248 77.7914L75.6295 77.7666C75.632 77.7425 75.6371 77.7188 75.6445 77.6958C75.6689 77.6372 75.7322 77.6128 75.7936 77.5885L75.8227 77.5763C76.4812 77.2952 77.0637 76.8619 77.5223 76.312C77.5809 76.2436 77.6517 76.1775 77.7422 76.1653C77.7656 76.1616 77.7895 76.1616 77.813 76.1653L90.1847 78.7083L90.1875 78.7055ZM68.8983 99.9947L66.9178 101.975L45.0225 70.3313L44.9981 70.297C44.9644 70.2506 44.9278 70.2042 44.9348 70.1503C44.9372 70.1114 44.9616 70.0772 44.9887 70.0477L45.0131 70.0163C45.0787 69.9183 45.135 69.8203 45.1964 69.7153L45.2452 69.6295L45.2527 69.6225C45.2869 69.5639 45.3183 69.5077 45.3773 69.4758C45.4289 69.4514 45.4992 69.4613 45.5555 69.4735L69.8128 74.476C69.8808 74.4863 69.9449 74.5141 69.9989 74.5566C70.0308 74.5885 70.0378 74.6227 70.0453 74.6616C70.2145 75.3018 70.5294 75.8942 70.9654 76.3926C71.4014 76.8909 71.9467 77.2818 72.5588 77.5345C72.6272 77.5688 72.5977 77.6447 72.5662 77.7253C72.5503 77.7605 72.5381 77.7975 72.5292 77.8355C72.2236 79.6936 69.6028 95.6789 68.8983 99.9947ZM64.7616 104.129C63.3019 105.574 62.4413 106.339 61.4681 106.648C60.5085 106.951 59.4788 106.951 58.5192 106.648C57.3802 106.286 56.3948 105.303 54.4266 103.332L32.4384 81.3441L38.1816 72.4364C38.206 72.3918 38.2393 72.3527 38.2795 72.3216C38.3405 72.2775 38.4286 72.2972 38.5022 72.3216C39.8203 72.7195 41.2355 72.6478 42.5067 72.1186C42.5728 72.0942 42.6389 72.0774 42.6905 72.1238C42.7158 72.1472 42.7388 72.1735 42.7589 72.202L64.7616 104.131V104.129ZM30.3183 79.2239L25.2745 74.1802L35.2355 69.9305C35.2609 69.9193 35.2883 69.9136 35.3161 69.9136C35.3991 69.9136 35.4483 69.9966 35.4923 70.0725C35.5922 70.2263 35.6986 70.3763 35.8102 70.522L35.8416 70.5614C35.8711 70.6027 35.8514 70.6444 35.8223 70.6838L30.3206 79.2239H30.3183ZM23.0419 71.9475L16.6603 65.5659C15.5752 64.4803 14.7877 63.6933 14.2397 63.016L33.6436 67.0406L33.7172 67.0528C33.8367 67.072 33.9689 67.0941 33.9689 67.2066C33.9689 67.3289 33.8245 67.3852 33.7022 67.4316L33.6459 67.456L23.0419 71.9475ZM13.125 59.7347C13.1472 59.3236 13.2213 58.917 13.3453 58.5244C13.7067 57.3849 14.6897 56.4024 16.6603 54.4313L24.8269 46.2652C28.5871 51.7221 32.3574 57.1721 36.1378 62.6152C36.2034 62.7028 36.277 62.8008 36.2011 62.8739C35.8444 63.2677 35.4872 63.698 35.2355 64.1653C35.2081 64.2253 35.166 64.2774 35.1131 64.3167C35.0812 64.3364 35.0475 64.3289 35.01 64.3214H35.0053L13.125 59.7324V59.7347ZM27.0127 44.0794L37.9931 33.0985C39.0253 33.5508 42.7809 35.1375 46.14 36.556C48.683 37.6317 51.0009 38.6095 51.7294 38.9278C51.803 38.9569 51.8691 38.9864 51.9005 39.0595C51.9202 39.1036 51.9103 39.1599 51.9005 39.2063C51.7272 39.9989 51.7533 40.8222 51.9765 41.6022C52.1996 42.3823 52.6129 43.0948 53.1792 43.6758C53.2528 43.7494 53.1792 43.8539 53.1159 43.9449L53.0817 43.9964L41.9325 61.2652C41.9078 61.3139 41.8716 61.3559 41.827 61.3875C41.7684 61.4241 41.6855 61.4072 41.617 61.3899C41.1833 61.2763 40.7374 61.2155 40.2891 61.2089C39.8883 61.2089 39.4528 61.2825 39.0131 61.3631H39.0103C38.9616 61.3706 38.9175 61.38 38.8786 61.351C38.8353 61.3157 38.7981 61.2736 38.7684 61.2263L27.0127 44.0794ZM40.2112 30.8808L54.4266 16.6655C56.3948 14.6972 57.3802 13.7124 58.5192 13.3524C59.4788 13.049 60.5086 13.049 61.4681 13.3524C62.6077 13.7119 63.593 14.6977 65.5612 16.6655L68.6419 19.7461L58.5314 35.4042C58.5065 35.4497 58.4725 35.4896 58.4316 35.5214C58.3702 35.5636 58.2848 35.5463 58.2112 35.5214C57.4141 35.2795 56.5701 35.2355 55.7521 35.3931C54.9341 35.5507 54.1669 35.9053 53.5167 36.4261C53.4506 36.4945 53.3531 36.4556 53.2697 36.4191C51.9497 35.8444 41.6803 31.5047 40.2112 30.8808ZM70.7888 21.893L80.1234 31.2281L77.8744 45.1599V45.1964C77.8721 45.2283 77.8655 45.2597 77.8547 45.2897C77.8303 45.3384 77.7811 45.3483 77.7323 45.3628C77.2514 45.5085 76.7985 45.7341 76.3927 46.0303C76.3751 46.0428 76.3586 46.0568 76.3434 46.072C76.3167 46.1011 76.29 46.1283 76.2459 46.133C76.21 46.1342 76.1742 46.1285 76.1405 46.1161L61.9153 40.072L61.8886 40.0594C61.7981 40.0228 61.6908 39.9788 61.6908 39.886C61.607 39.0932 61.3481 38.329 60.9328 37.6486C60.8644 37.5361 60.7884 37.4189 60.847 37.3041L70.7888 21.893ZM61.1747 42.9352L74.5097 48.5831C74.5833 48.6174 74.6639 48.6488 74.6958 48.7247C74.7084 48.7702 74.7084 48.8184 74.6958 48.8639C74.6502 49.0754 74.6256 49.2908 74.6222 49.507V49.8811C74.6222 49.9744 74.527 50.0133 74.4389 50.0499L74.4122 50.0597C72.2995 50.962 44.7539 62.708 44.7122 62.708C44.6709 62.708 44.6269 62.708 44.5852 62.6663C44.512 62.5931 44.5852 62.4905 44.6508 62.3972C44.663 62.3813 44.6742 62.3649 44.6855 62.3484L55.6439 45.3797L55.6636 45.3506C55.7273 45.2475 55.8005 45.1331 55.9177 45.1331L56.0278 45.15C56.2772 45.1842 56.4975 45.2161 56.7197 45.2161C58.3823 45.2161 59.9227 44.407 60.8517 43.0228C60.8741 42.9861 60.9023 42.9532 60.9352 42.9253C61.0012 42.8761 61.0987 42.9014 61.1747 42.9352ZM45.9028 65.392L75.9281 52.5877C75.9281 52.5877 75.9722 52.5877 76.0134 52.6289C76.1775 52.793 76.3167 52.9027 76.4512 53.0053L76.5173 53.047C76.5783 53.0813 76.6397 53.1206 76.6444 53.1839C76.6444 53.2083 76.6444 53.2233 76.6397 53.2453L74.0672 69.045L74.0573 69.1083C74.0405 69.2306 74.0231 69.3703 73.9083 69.3703C73.2225 69.4162 72.5582 69.6288 71.9732 69.9897C71.3883 70.3506 70.9002 70.8489 70.5516 71.4413L70.5389 71.4605C70.5047 71.5167 70.4733 71.5706 70.417 71.6002C70.3655 71.6245 70.2994 71.6147 70.2459 71.6025L46.3017 66.6633C46.2773 66.6586 45.9295 65.3944 45.9028 65.392Z" fill="url(#paint0_radial_5_164)"/>
</g>
<defs>
<radialGradient id="paint0_radial_5_164" cx="0" cy="0" r="1" gradientUnits="userSpaceOnUse" gradientTransform="translate(10.055 58.7166) rotate(90) scale(93.6469 108.119)">
<stop stop-color="#20C6B7"/>
<stop offset="1" stop-color="#4D9ABF"/>
</radialGradient>
<clipPath id="clip0_5_164">
<rect width="120" height="120" fill="white"/>
</clipPath>
</defs>
</svg>
