<svg width="121" height="120" viewBox="0 0 121 120" fill="none" xmlns="http://www.w3.org/2000/svg">
<g clip-path="url(#clip0_5_116)">
<path d="M92.125 0H28.375C12.842 0 0.25 12.592 0.25 28.125V91.875C0.25 107.408 12.842 120 28.375 120H92.125C107.658 120 120.25 107.408 120.25 91.875V28.125C120.25 12.592 107.658 0 92.125 0Z" fill="#242938"/>
<path d="M57.1801 13.1503C56.9786 13.1686 56.3369 13.2328 55.7594 13.2783C42.4441 14.4788 29.9716 21.6638 22.0717 32.7066C17.6734 38.8467 14.8595 45.8114 13.7969 53.1891C13.4214 55.7644 13.3755 56.5252 13.3755 60.0164C13.3755 63.5082 13.4214 64.2689 13.7973 66.8438C16.3445 84.4482 28.8723 99.2396 45.8626 104.72C48.9053 105.7 52.1125 106.369 55.7598 106.772C57.1806 106.928 63.3203 106.928 64.7411 106.772C71.0369 106.076 76.3703 104.518 81.6306 101.833C82.4369 101.421 82.593 101.31 82.4828 101.219C82.4097 101.164 78.9728 96.5541 74.8492 90.9825L67.353 80.8561L57.9592 66.9539C52.7908 59.311 48.5387 53.0606 48.5017 53.0606C48.4651 53.0517 48.4286 59.2285 48.4103 66.7706C48.3826 79.9763 48.3737 80.5078 48.2087 80.8191C47.9706 81.2681 47.7873 81.4514 47.402 81.6535C47.1091 81.7997 46.8522 81.8274 45.4684 81.8274H43.8831L43.4612 81.5616C43.2001 81.398 42.9879 81.1669 42.8472 80.8927L42.655 80.4802L42.6737 62.1061L42.7009 43.7227L42.985 43.365C43.1317 43.1728 43.4434 42.9253 43.6633 42.8063C44.0387 42.623 44.1855 42.6047 45.7708 42.6047C47.6406 42.6047 47.9519 42.6778 48.438 43.2094C48.5753 43.3561 53.6612 51.0174 59.7466 60.2456C65.9072 69.5864 72.0716 78.9247 78.2397 88.2605L85.6628 99.5053L86.0387 99.2578C89.365 97.095 92.8844 94.0158 95.6702 90.8081C101.599 83.9991 105.421 75.6966 106.704 66.8438C107.08 64.2689 107.125 63.5082 107.125 60.0164C107.125 56.5252 107.08 55.7644 106.704 53.1891C104.156 35.5847 91.6286 20.7938 74.6383 15.3136C71.6416 14.3419 68.4526 13.673 64.8784 13.2699C63.9986 13.178 57.9409 13.0777 57.1806 13.1508M76.3703 41.505C76.81 41.7249 77.1677 42.1463 77.2961 42.586C77.3692 42.8246 77.3875 47.9199 77.3692 59.4024L77.3416 75.8799L74.4367 71.4258L71.5225 66.9722V54.9947C71.5225 47.251 71.559 42.8977 71.6139 42.6867C71.7606 42.1739 72.0812 41.7708 72.5214 41.5322C72.8969 41.34 73.0347 41.3213 74.4733 41.3213C75.8298 41.3213 76.068 41.34 76.3703 41.505Z" fill="white"/>
</g>
<defs>
<clipPath id="clip0_5_116">
<rect width="120" height="120" fill="white" transform="translate(0.25)"/>
</clipPath>
</defs>
</svg>
