<svg width="121" height="120" viewBox="0 0 121 120" fill="none" xmlns="http://www.w3.org/2000/svg">
<g clip-path="url(#clip0_5_143)">
<path d="M92.5 0H28.75C13.217 0 0.625 12.592 0.625 28.125V91.875C0.625 107.408 13.217 120 28.75 120H92.5C108.033 120 120.625 107.408 120.625 91.875V28.125C120.625 12.592 108.033 0 92.5 0Z" fill="#242938"/>
<path d="M56.8178 14.5856C59.1236 13.2661 62.1264 13.26 64.4299 14.5856C76.0183 21.1341 87.6105 27.6717 99.197 34.2239C101.377 35.4516 102.834 37.8769 102.812 40.388V79.7841C102.828 82.3992 101.227 84.8827 98.9275 86.0822C87.377 92.5945 75.8322 99.1144 64.2836 105.627C61.9309 106.972 58.8677 106.868 56.5877 105.412C53.125 103.405 49.6563 101.407 46.1931 99.4022C45.4853 98.9803 44.6875 98.6447 44.1878 97.9584C44.6298 97.3631 45.4197 97.2891 46.0614 97.0289C47.5066 96.5691 48.8345 95.8312 50.162 95.1155C50.4981 94.8858 50.9078 94.9739 51.2299 95.1792C54.1909 96.877 57.1263 98.6245 60.0972 100.306C60.7309 100.672 61.3727 100.186 61.9145 99.8841C73.2489 93.4777 84.5973 87.0961 95.9303 80.6878C96.3503 80.4858 96.5824 80.04 96.5481 79.5802C96.5561 66.5841 96.55 53.5861 96.5524 40.5895C96.6002 40.0683 96.2983 39.5883 95.8263 39.3745C84.3161 32.8922 72.8111 26.4005 61.3028 19.9167C61.1035 19.7795 60.8673 19.7059 60.6254 19.7055C60.3834 19.7051 60.147 19.7779 59.9472 19.9144C48.4384 26.4005 36.9363 32.8988 25.4275 39.3802C24.9573 39.5944 24.6419 40.0664 24.6977 40.5895C24.7 53.5861 24.6977 66.5841 24.6977 79.582C24.6777 79.8065 24.727 80.0318 24.839 80.2274C24.951 80.423 25.1202 80.5796 25.3239 80.6761C28.3947 82.4175 31.4697 84.1467 34.5428 85.8825C36.2744 86.8139 38.3997 87.368 40.3075 86.6541C41.9903 86.0503 43.1702 84.3323 43.1383 82.5455C43.1542 69.6253 43.1303 56.7033 43.15 43.7845C43.1078 43.2112 43.652 42.7373 44.2099 42.7917C45.6855 42.7814 47.163 42.7716 48.6386 42.7955C49.2545 42.7814 49.6783 43.3992 49.6024 43.9767C49.5963 56.9789 49.6183 69.9811 49.5925 82.9828C49.5963 86.4483 48.1727 90.2189 44.9673 91.9144C41.0191 93.9595 36.1384 93.5259 32.2375 91.5647C28.8606 89.8791 25.6375 87.8897 22.3206 86.0841C20.0153 84.8911 18.4216 82.3978 18.438 79.7845V40.388C18.4136 37.8248 19.9295 35.3555 22.1763 34.1456C33.7248 27.6286 45.2716 21.1059 56.8178 14.5856Z" fill="#81CD39"/>
<path d="M66.8931 41.8758C71.9298 41.5514 77.3219 41.6836 81.8542 44.1651C85.3638 46.0664 87.3091 50.0573 87.3709 53.9559C87.273 54.4814 86.7231 54.7715 86.2211 54.7354C84.76 54.7336 83.298 54.7556 81.8369 54.7256C81.2167 54.7495 80.8567 54.1781 80.7789 53.6301C80.3589 51.7645 79.3412 49.9172 77.5858 49.0172C74.8905 47.6681 71.7658 47.7361 68.8267 47.7642C66.6812 47.8776 64.3741 48.0637 62.5562 49.3251C61.1608 50.2809 60.737 52.2103 61.2348 53.7642C61.7045 54.8798 62.9922 55.2398 64.0464 55.5717C70.1162 57.1594 76.5484 57.0009 82.5025 59.0901C84.9677 59.9418 87.3789 61.5979 88.2227 64.1789C89.3266 67.6383 88.8428 71.7726 86.3814 74.5495C84.3855 76.8347 81.4787 78.0787 78.5795 78.7542C74.7227 79.6144 70.72 79.6364 66.8031 79.2544C63.1202 78.8344 59.2872 77.8669 56.4442 75.3576C54.0128 73.2464 52.8255 69.9567 52.9431 66.7823C52.9713 66.2461 53.5052 65.872 54.0189 65.9161C55.4903 65.9044 56.9622 65.9001 58.4336 65.9184C59.0219 65.8762 59.4573 66.3844 59.4878 66.9384C59.7588 68.7154 60.4267 70.5811 61.9769 71.6344C64.9675 73.5642 68.7208 73.432 72.1455 73.4859C74.9828 73.3603 78.168 73.3223 80.4831 71.4468C81.7047 70.3772 82.0666 68.5875 81.7366 67.0481C81.3789 65.7483 80.0191 65.1426 78.8514 64.7465C72.8594 62.8514 66.355 63.539 60.4211 61.3954C58.0117 60.5442 55.682 58.9345 54.7567 56.4595C53.4653 52.9565 54.0569 48.6234 56.7761 45.9408C59.4273 43.2712 63.2542 42.2433 66.8931 41.8758Z" fill="#81CD39"/>
</g>
<defs>
<clipPath id="clip0_5_143">
<rect width="120" height="120" fill="white" transform="translate(0.625)"/>
</clipPath>
</defs>
</svg>
