<svg width="120" height="120" viewBox="0 0 120 120" fill="none" xmlns="http://www.w3.org/2000/svg">
<g clip-path="url(#clip0_5_131)">
<path d="M91.875 0H28.125C12.592 0 0 12.592 0 28.125V91.875C0 107.408 12.592 120 28.125 120H91.875C107.408 120 120 107.408 120 91.875V28.125C120 12.592 107.408 0 91.875 0Z" fill="#242938"/>
<path d="M23.0428 46.9903H36.3591C40.2675 47.0231 43.0997 48.15 44.8556 50.3691C46.6116 52.5881 47.1909 55.6191 46.5947 59.4619C46.3631 61.2178 45.8494 62.94 45.0544 64.6294C44.2922 66.3188 43.2328 67.8422 41.8744 69.2006C40.2178 70.9228 38.4459 72.0159 36.5578 72.48C34.6697 72.9441 32.715 73.1756 30.6947 73.1756H24.7322L22.8441 82.6163H15.9375L23.0428 46.9903ZM28.8563 52.6547L25.875 67.5609C26.0738 67.5938 26.2725 67.6106 26.4713 67.6106H27.1669C30.3469 67.6434 32.9972 67.3294 35.1169 66.6666C37.2366 65.9709 38.6616 63.5531 39.39 59.4122C39.9862 55.9341 39.39 53.9297 37.6013 53.4C35.8453 52.8703 33.6431 52.6219 30.9928 52.6547C30.5953 52.6875 30.2147 52.7044 29.85 52.7044H28.8066L28.8563 52.6547ZM54.4622 37.5H61.3191L59.3813 46.9903H65.5425C68.9213 47.0569 71.4384 47.7525 73.095 49.0772C74.7844 50.4019 75.2812 52.92 74.5856 56.6297L71.2566 73.1756H64.3003L67.4803 57.375C67.8112 55.7184 67.7119 54.5428 67.1822 53.8472C66.6525 53.1516 65.5097 52.8038 63.7537 52.8038L58.2384 52.7541L54.1641 73.1756H47.3072L54.4622 37.5ZM81.9488 46.9903H95.265C99.1734 47.0231 102.006 48.15 103.762 50.3691C105.518 52.5881 106.097 55.6191 105.501 59.4619C105.269 61.2178 104.755 62.94 103.96 64.6294C103.198 66.3188 102.139 67.8422 100.78 69.2006C99.1238 70.9228 97.3519 72.0159 95.4638 72.48C93.5756 72.9441 91.6209 73.1756 89.6006 73.1756H83.6381L81.75 82.6163H74.8434L81.9488 46.9903ZM87.7622 52.6547L84.7809 67.5609C84.9797 67.5938 85.1784 67.6106 85.3772 67.6106H86.0728C89.2528 67.6434 91.9031 67.3294 94.0228 66.6666C96.1425 65.9709 97.5675 63.5531 98.2959 59.4122C98.8922 55.9341 98.2959 53.9297 96.5072 53.4C94.7513 52.8703 92.5491 52.6219 89.8987 52.6547C89.5012 52.6875 89.1206 52.7044 88.7559 52.7044H87.7125L87.7622 52.6547Z" fill="white"/>
</g>
<defs>
<clipPath id="clip0_5_131">
<rect width="120" height="120" fill="white"/>
</clipPath>
</defs>
</svg>
