<svg width="121" height="120" viewBox="0 0 121 120" fill="none" xmlns="http://www.w3.org/2000/svg">
<g clip-path="url(#clip0_5_87)">
<path d="M92.625 0H28.875C13.342 0 0.75 12.592 0.75 28.125V91.875C0.75 107.408 13.342 120 28.875 120H92.625C108.158 120 120.75 107.408 120.75 91.875V28.125C120.75 12.592 108.158 0 92.625 0Z" fill="#242938"/>
<path d="M96.1312 69.6975C86.6062 71.6616 85.9144 68.4352 85.9144 68.4352C95.9766 53.5045 100.185 34.553 96.5531 29.9156C86.6527 17.2594 69.5105 23.2481 69.2236 23.4033L69.1312 23.4197C67.0376 22.9995 64.9089 22.7775 62.7736 22.7569C58.4625 22.6913 55.193 23.8875 52.7081 25.7695C52.7081 25.7695 22.1287 13.1728 23.5523 41.6133C23.8556 47.6644 32.2209 87.4261 42.2072 75.3961C45.8855 70.973 49.4119 67.2581 49.4119 67.2581C51.1589 68.4216 53.2584 69.015 55.4569 68.8008L55.628 68.6559C55.5779 69.2256 55.6012 69.7994 55.6973 70.3631C53.1267 73.237 53.8847 73.7414 48.743 74.7994C43.5422 75.8705 46.6008 77.7788 48.5916 78.2798C51.0108 78.8864 56.6072 79.7433 60.3909 74.4502L60.2391 75.053C61.2478 75.8606 61.9528 80.3034 61.8342 84.3309C61.7156 88.3589 61.6364 91.1208 62.4277 93.2827C63.2184 95.445 64.0097 100.303 70.7662 98.8856C76.4123 97.6763 79.3355 94.5352 79.7475 89.3081C80.0377 85.59 80.6902 86.137 80.7366 82.815L81.2639 81.2395C81.8667 76.1967 81.3623 74.572 84.8395 75.33L85.6866 75.4059C88.2478 75.5213 91.5998 74.9939 93.5639 74.0808C97.7991 72.1167 100.311 68.8336 96.1345 69.6975H96.1312Z" fill="#336791"/>
<path d="M69.2203 22.7794C68.1656 23.1089 86.2406 16.1714 96.517 29.2988C100.143 33.9361 95.9405 52.8877 85.8778 67.8178M60.7959 72.0863C60.5325 81.4664 60.862 90.9122 61.7784 93.18C62.6944 95.4474 64.6622 99.9366 71.422 98.4928C77.0681 97.2835 79.1245 94.9397 80.0147 89.7685L82.1006 73.2333L60.7959 72.0863ZM52.695 25.0636C52.695 25.0636 22.0955 12.5527 23.5195 40.9922C23.8228 47.0433 32.1877 86.805 42.1744 74.775C45.8194 70.3814 49.1156 66.9441 49.1156 66.9441L52.695 25.0636Z" stroke="white" stroke-linecap="round" stroke-linejoin="round"/>
<path d="M85.8811 67.8112C85.8811 67.8112 86.5406 71.0414 96.0984 69.0703C100.275 68.2069 97.7597 71.4895 93.5278 73.454C90.0539 75.0689 82.2623 75.4809 82.1339 73.2562C81.8044 67.5047 86.2341 69.2517 85.9144 67.8112C85.6242 66.5128 83.64 65.2406 82.335 62.0634C81.1912 59.2945 66.6464 38.0362 86.3691 41.19C87.0942 41.0419 81.2273 22.4039 62.7703 22.1334C44.3133 21.8629 44.8969 44.8256 44.8969 44.8256" stroke="white" stroke-linecap="round" stroke-linejoin="bevel"/>
<path d="M55.6313 69.7823C53.0606 72.6562 53.8186 73.1606 48.6774 74.2186C43.4761 75.2897 46.5352 77.1979 48.5255 77.699C50.9447 78.3056 56.5411 79.1625 60.3249 73.8656C61.4784 72.2508 60.3183 69.6801 58.7363 69.0276C57.9717 68.7112 56.9499 68.3156 55.6383 69.7856L55.6313 69.7823Z" stroke="white" stroke-linejoin="round"/>
<path d="M55.4634 69.7327C55.1995 68.0419 56.017 66.0347 56.8903 63.6816C58.2023 60.1552 61.2281 56.6283 58.8089 45.4322C57.0061 37.0931 44.9002 43.695 44.9002 44.8256C44.9002 45.9563 45.4472 50.5608 44.7023 55.9163C43.7236 62.9105 49.1517 68.8233 55.4006 68.22" stroke="white" stroke-linecap="round" stroke-linejoin="round"/>
<path d="M52.583 44.6578C52.5267 45.0431 53.2912 46.0748 54.2836 46.2131C55.2755 46.3519 56.1225 45.5475 56.1787 45.1584C56.2345 44.7694 55.47 44.3475 54.4781 44.2092C53.4858 44.0709 52.6322 44.2753 52.583 44.6578Z" fill="white" stroke="white" stroke-width="1.68"/>
<path d="M82.7864 43.8703C82.8389 44.2556 82.0777 45.2869 81.0858 45.4256C80.0934 45.5639 79.2399 44.76 79.1906 44.3709C79.1409 43.9819 79.8994 43.56 80.8913 43.4217C81.8831 43.2834 82.7367 43.4878 82.7864 43.8703Z" fill="white" stroke="white" stroke-width="0.837"/>
<path d="M86.333 41.197C86.4975 44.2294 85.68 46.2891 85.5745 49.5159C85.4231 54.2025 87.8095 59.5683 84.2133 64.9406" stroke="white" stroke-linecap="round" stroke-linejoin="round"/>
</g>
<defs>
<clipPath id="clip0_5_87">
<rect width="120" height="120" fill="white" transform="translate(0.75)"/>
</clipPath>
</defs>
</svg>
