<svg width="121" height="120" viewBox="0 0 121 120" fill="none" xmlns="http://www.w3.org/2000/svg">
<g clip-path="url(#clip0_5_154)">
<path d="M92.125 0H28.375C12.842 0 0.25 12.592 0.25 28.125V91.875C0.25 107.408 12.842 120 28.375 120H92.125C107.658 120 120.25 107.408 120.25 91.875V28.125C120.25 12.592 107.658 0 92.125 0Z" fill="#242938"/>
<path d="M59.912 13.5938C36.1127 13.5938 37.5986 23.9147 37.5986 23.9147L37.6253 34.6069H60.3367V37.8178H28.6042C28.6042 37.8178 13.375 36.09 13.375 60.1036C13.375 84.1176 26.6673 83.2664 26.6673 83.2664H34.6005V72.1228C34.6005 72.1228 34.173 58.8305 47.6809 58.8305H70.2062C70.2062 58.8305 82.862 59.0348 82.862 46.5989V26.0372C82.862 26.0372 84.7834 13.5938 59.912 13.5938ZM47.3889 20.7839C47.9257 20.7834 48.4572 20.8887 48.9532 21.0938C49.4492 21.299 49.8999 21.5999 50.2794 21.9795C50.659 22.359 50.9599 22.8097 51.1651 23.3057C51.3702 23.8017 51.4756 24.3332 51.475 24.87C51.4755 25.4067 51.3701 25.9382 51.165 26.4342C50.9598 26.9301 50.6588 27.3807 50.2793 27.7602C49.8997 28.1397 49.4491 28.4406 48.9531 28.6458C48.4572 28.8509 47.9256 28.9562 47.3889 28.9556C46.8522 28.9561 46.3207 28.8508 45.8248 28.6456C45.3289 28.4405 44.8783 28.1396 44.4988 27.7601C44.1193 27.3806 43.8184 26.93 43.6133 26.4341C43.4081 25.9382 43.3028 25.4067 43.3033 24.87C43.3027 24.3333 43.408 23.8017 43.6131 23.3058C43.8183 22.8098 44.1192 22.3592 44.4987 21.9796C44.8782 21.6001 45.3288 21.2991 45.8247 21.0939C46.3207 20.8888 46.8522 20.7834 47.3889 20.7839Z" fill="url(#paint0_linear_5_154)"/>
<path d="M60.588 106.855C84.3873 106.855 82.9014 96.5348 82.9014 96.5348L82.8747 85.8422H60.1633V82.6317H91.8958C91.8958 82.6317 107.125 84.359 107.125 60.345C107.125 36.3309 93.8327 37.1826 93.8327 37.1826H85.8995V48.3262C85.8995 48.3262 86.327 61.6186 72.8191 61.6186H50.2938C50.2938 61.6186 37.6375 61.4137 37.6375 73.8497V94.4118C37.6375 94.4118 35.7161 106.855 60.588 106.855ZM73.1111 99.6651C72.5744 99.6657 72.0428 99.5604 71.5469 99.3553C71.0509 99.1501 70.6002 98.8492 70.2207 98.4697C69.8412 98.0903 69.5402 97.6396 69.335 97.1437C69.1299 96.6478 69.0245 96.1162 69.025 95.5795C69.0244 95.0428 69.1298 94.5112 69.3349 94.0152C69.5401 93.5192 69.841 93.0685 70.2205 92.689C70.6001 92.3094 71.0508 92.0085 71.5468 91.8033C72.0428 91.5982 72.5743 91.4929 73.1111 91.4934C73.6478 91.4929 74.1794 91.5983 74.6754 91.8034C75.1713 92.0086 75.622 92.3096 76.0015 92.6891C76.381 93.0686 76.682 93.5193 76.8872 94.0152C77.0923 94.5112 77.1977 95.0428 77.1972 95.5795C77.1976 96.1162 77.0922 96.6477 76.887 97.1436C76.6818 97.6395 76.3809 98.0901 76.0013 98.4696C75.6218 98.8491 75.1712 99.15 74.6752 99.3551C74.1793 99.5603 73.6478 99.6656 73.1111 99.6651Z" fill="url(#paint1_linear_5_154)"/>
</g>
<defs>
<linearGradient id="paint0_linear_5_154" x1="22.3844" y1="21.9825" x2="68.8436" y2="67.9781" gradientUnits="userSpaceOnUse">
<stop stop-color="#387EB8"/>
<stop offset="1" stop-color="#366994"/>
</linearGradient>
<linearGradient id="paint1_linear_5_154" x1="50.9012" y1="51.5179" x2="100.793" y2="98.6822" gradientUnits="userSpaceOnUse">
<stop stop-color="#FFE052"/>
<stop offset="1" stop-color="#FFC331"/>
</linearGradient>
<clipPath id="clip0_5_154">
<rect width="120" height="120" fill="white" transform="translate(0.25)"/>
</clipPath>
</defs>
</svg>
