<svg width="121" height="120" viewBox="0 0 121 120" fill="none" xmlns="http://www.w3.org/2000/svg">
<g clip-path="url(#clip0_5_120)">
<path d="M92 0H28.25C12.717 0 0.125 12.592 0.125 28.125V91.875C0.125 107.408 12.717 120 28.25 120H92C107.533 120 120.125 107.408 120.125 91.875V28.125C120.125 12.592 107.533 0 92 0Z" fill="#242938"/>
<path d="M60.1255 68.8833C64.9555 68.8833 68.8705 64.9678 68.8705 60.1383C68.8705 55.3088 64.9555 51.3933 60.1255 51.3933C55.2959 51.3933 51.3805 55.3088 51.3805 60.1383C51.3805 64.9678 55.2959 68.8833 60.1255 68.8833Z" fill="#00D8FF"/>
<path d="M60.1259 42.3577C71.8672 42.3577 82.7745 44.0424 90.9987 46.8741C100.908 50.2852 107 55.4559 107 60.1383C107 65.0175 100.543 70.5108 89.9023 74.0363C81.8577 76.7016 71.2714 78.0928 60.1259 78.0928C48.6987 78.0928 37.8777 76.7869 29.742 74.0067C19.4492 70.4888 13.25 64.9247 13.25 60.1383C13.25 55.4939 19.0672 50.363 28.8369 46.957C37.0916 44.0789 48.268 42.3577 60.1241 42.3577H60.1259Z" stroke="#00D8FF" stroke-width="3"/>
<path d="M44.6473 51.2991C50.5133 41.1281 57.4212 32.5209 63.9828 26.8116C71.8878 19.9317 79.4112 17.2373 83.4669 19.5759C87.6936 22.0134 89.2269 30.3516 86.9651 41.3306C85.2565 49.6308 81.1719 59.4961 75.6036 69.1514C69.8947 79.0505 63.358 87.772 56.8859 93.4289C48.6964 100.588 40.7787 103.178 36.6326 100.787C32.6094 98.4689 31.0709 90.8653 33.0012 80.7005C34.632 72.1116 38.7247 61.5698 44.6455 51.2991H44.6473Z" stroke="#00D8FF" stroke-width="3"/>
<path d="M44.6619 69.1772C38.7795 59.0175 34.7745 48.7322 33.103 40.1963C31.0906 29.9114 32.5133 22.0481 36.5656 19.7025C40.7886 17.2575 48.7775 20.0935 57.1597 27.5363C63.4972 33.1631 70.0049 41.6274 75.5891 51.2733C81.3144 61.163 85.6053 71.1825 87.2746 79.6144C89.3867 90.285 87.6772 98.438 83.5349 100.836C79.5158 103.163 72.1606 100.699 64.318 93.9502C57.6917 88.2483 50.6024 79.4382 44.6619 69.1772Z" stroke="#00D8FF" stroke-width="3"/>
</g>
<defs>
<clipPath id="clip0_5_120">
<rect width="120" height="120" fill="white" transform="translate(0.125)"/>
</clipPath>
</defs>
</svg>
