<svg width="121" height="120" viewBox="0 0 121 120" fill="none" xmlns="http://www.w3.org/2000/svg">
<g clip-path="url(#clip0_5_150)">
<path d="M92.25 0H28.5C12.967 0 0.375 12.592 0.375 28.125V91.875C0.375 107.408 12.967 120 28.5 120H92.25C107.783 120 120.375 107.408 120.375 91.875V28.125C120.375 12.592 107.783 0 92.25 0Z" fill="#242938"/>
<path d="M98.5992 80.5411C87.0609 95.9147 62.4127 90.7252 46.6102 91.4714C46.6102 91.4714 43.8127 91.627 40.995 92.0911C40.995 92.0911 42.0605 91.6364 43.4194 91.1681C54.5184 87.33 59.7633 86.5589 66.5072 83.0948C79.1784 76.6036 91.7897 62.4652 94.3556 47.7773C89.5322 61.9036 74.8636 74.0616 61.507 78.9984C52.3645 82.372 35.8322 85.6552 35.8298 85.6566C35.8373 85.6683 35.1708 85.3106 35.1614 85.3027C23.918 79.8323 23.5936 55.4808 44.0142 47.6311C52.9673 44.1872 61.5309 46.0791 71.2097 43.7752C81.5325 41.3208 93.4884 33.5831 98.348 23.467C103.796 39.6258 110.34 64.9064 98.5992 80.5411ZM98.7998 18.4598C97.4264 21.7233 95.7497 24.6642 93.8175 27.2944C85.3111 18.5644 73.4381 13.125 60.3145 13.125C34.4995 13.125 13.5 34.1269 13.5 59.9372C13.5 73.4677 19.275 85.6706 28.4831 94.2244L29.5083 95.1323C27.7964 93.7364 27.5334 91.2225 28.9209 89.5087C30.3169 87.7945 32.8331 87.5288 34.5459 88.9172C36.2634 90.3084 36.525 92.8289 35.1347 94.5455C33.7491 96.263 31.2281 96.5222 29.513 95.1366L30.2109 95.7544C38.3555 102.612 48.855 106.755 60.3145 106.755C84.9895 106.755 105.251 87.5522 106.986 63.3155C108.27 51.4486 104.765 36.3802 98.7998 18.4598Z" fill="#5FB832"/>
</g>
<defs>
<clipPath id="clip0_5_150">
<rect width="120" height="120" fill="white" transform="translate(0.375)"/>
</clipPath>
</defs>
</svg>
