<svg width="121" height="120" viewBox="0 0 121 120" fill="none" xmlns="http://www.w3.org/2000/svg">
<g clip-path="url(#clip0_5_148)">
<path d="M118.965 53.53L95.315 12.605C93.265 9.05501 88.23 6.13501 84.115 6.13501H36.865C32.765 6.13501 27.71 9.05501 25.665 12.605L2.03 53.53C-0.0199997 57.08 -0.0199997 62.895 2.03 66.45L25.655 107.395C27.705 110.945 32.74 113.865 36.855 113.865H84.13C88.23 113.865 93.26 110.945 95.33 107.395L118.96 66.445C121.01 62.895 121.01 57.08 118.96 53.53H118.965ZM55.38 28.775C55.38 26.09 57.57 23.9 60.25 23.9C62.93 23.9 65.125 26.09 65.125 28.775V57.88C65.0456 59.1177 64.498 60.2787 63.5935 61.1271C62.6889 61.9756 61.4952 62.4478 60.255 62.4478C59.0148 62.4478 57.8211 61.9756 56.9165 61.1271C56.012 60.2787 55.4644 59.1177 55.385 57.88L55.38 28.775ZM60.25 90.925C51.4905 90.9131 43.0933 87.4274 36.9004 81.2326C30.7074 75.0377 27.2243 66.6395 27.215 57.88C27.2268 52.7278 28.438 47.6492 30.7525 43.0462C33.067 38.4431 36.4214 34.4421 40.55 31.36C41.0072 31.0194 41.5272 30.7724 42.0801 30.6333C42.633 30.4941 43.208 30.4655 43.7719 30.5491C44.3359 30.6328 44.8779 30.827 45.3666 31.1205C45.8553 31.4141 46.2813 31.8014 46.62 32.26C46.9604 32.7165 47.2074 33.2356 47.3469 33.7876C47.4864 34.3396 47.5156 34.9138 47.433 35.4771C47.3503 36.0405 47.1573 36.582 46.8651 37.0707C46.5729 37.5593 46.1872 37.9856 45.73 38.325C40.7211 42.2438 37.4417 47.9647 36.5915 54.2673C35.7412 60.57 37.3874 66.9554 41.1789 72.0613C44.9704 77.1673 50.607 80.5896 56.8862 81.5982C63.1654 82.6068 69.5902 81.1218 74.79 77.46C77.8438 75.1904 80.3238 72.2374 82.0316 68.8374C83.7394 65.4374 84.6276 61.6848 84.625 57.88C84.615 54.0611 83.7118 50.2974 81.9876 46.8898C80.2634 43.4822 77.766 40.5252 74.695 38.255C73.7708 37.5699 73.1557 36.5465 72.9842 35.4089C72.8127 34.2713 73.0988 33.1121 73.78 32.185C74.4651 31.2608 75.4885 30.6457 76.6261 30.4742C77.7637 30.3027 78.9229 30.5889 79.85 31.27C84.0112 34.3488 87.3937 38.3592 89.7267 42.98C92.0597 47.6008 93.2783 52.7037 93.285 57.88C93.2784 66.6407 89.7953 75.0407 83.6005 81.2355C77.4057 87.4303 69.0057 90.9134 60.245 90.92" fill="black"/>
</g>
<defs>
<clipPath id="clip0_5_148">
<rect width="120" height="120" fill="white" transform="translate(0.5)"/>
</clipPath>
</defs>
</svg>
