<svg width="121" height="120" viewBox="0 0 121 120" fill="none" xmlns="http://www.w3.org/2000/svg">
<g clip-path="url(#clip0_5_135)">
<path d="M92.75 0H29C13.467 0 0.875 12.592 0.875 28.125V91.875C0.875 107.408 13.467 120 29 120H92.75C108.283 120 120.875 107.408 120.875 91.875V28.125C120.875 12.592 108.283 0 92.75 0Z" fill="#242938"/>
<path fill-rule="evenodd" clip-rule="evenodd" d="M39.7812 51.5625C42.5938 40.3125 49.6255 34.6875 60.875 34.6875C77.75 34.6875 79.8594 47.3438 88.2969 49.4531C93.9223 50.8598 98.8438 48.7505 103.062 43.125C100.25 54.3745 93.2183 60 81.9688 60C65.0938 60 62.9844 47.3438 54.5469 45.2344C48.9214 43.8281 44 45.9375 39.7812 51.5625ZM18.6875 76.875C21.5 65.6255 28.5312 60 39.7812 60C56.6562 60 58.7656 72.6562 67.2031 74.7656C72.8286 76.1723 77.75 74.063 81.9688 68.4375C79.1567 79.687 72.1245 85.3125 60.875 85.3125C44 85.3125 41.8906 72.6562 33.4531 70.5469C27.8281 69.1402 22.9062 71.2495 18.6875 76.875Z" fill="url(#paint0_linear_5_135)"/>
</g>
<defs>
<linearGradient id="paint0_linear_5_135" x1="41.4219" y1="34.6875" x2="77.5156" y2="86.9531" gradientUnits="userSpaceOnUse">
<stop stop-color="#32B1C1"/>
<stop offset="1" stop-color="#14C6B7"/>
</linearGradient>
<clipPath id="clip0_5_135">
<rect width="120" height="120" fill="white" transform="translate(0.875)"/>
</clipPath>
</defs>
</svg>
